G75*
%MOIN*%
%OFA0B0*%
%FSLAX24Y24*%
%IPPOS*%
%LPD*%
%AMOC8*
5,1,8,0,0,1.08239X$1,22.5*
%
%ADD10C,0.0030*%
%ADD11C,0.0000*%
%ADD12C,0.0040*%
%ADD13C,0.0050*%
%ADD14C,0.0060*%
%ADD15C,0.0080*%
%ADD16C,0.0020*%
%ADD17R,0.0966X0.0033*%
%ADD18R,0.1133X0.0033*%
%ADD19R,0.1033X0.0033*%
%ADD20R,0.1167X0.0033*%
%ADD21R,0.1200X0.0033*%
%ADD22R,0.1067X0.0033*%
%ADD23R,0.1233X0.0033*%
%ADD24R,0.1100X0.0033*%
%ADD25R,0.1267X0.0033*%
%ADD26R,0.1300X0.0033*%
%ADD27R,0.2534X0.0033*%
%ADD28R,0.2567X0.0033*%
%ADD29R,0.2600X0.0033*%
%ADD30R,0.2634X0.0033*%
%ADD31R,0.2667X0.0033*%
%ADD32R,0.2700X0.0033*%
%ADD33R,0.2734X0.0033*%
%ADD34R,0.2767X0.0033*%
%ADD35R,0.2800X0.0033*%
%ADD36R,0.0434X0.0033*%
%ADD37R,0.2800X0.0033*%
%ADD38R,0.0733X0.0033*%
%ADD39R,0.2834X0.0033*%
%ADD40R,0.0267X0.0033*%
%ADD41R,0.0266X0.0033*%
%ADD42R,0.2867X0.0033*%
%ADD43R,0.0200X0.0033*%
%ADD44R,0.3100X0.0033*%
%ADD45R,0.0167X0.0033*%
%ADD46R,0.0067X0.0033*%
%ADD47R,0.2866X0.0033*%
%ADD48R,0.0166X0.0033*%
%ADD49R,0.0134X0.0033*%
%ADD50R,0.0066X0.0033*%
%ADD51R,0.2733X0.0033*%
%ADD52R,0.0133X0.0033*%
%ADD53R,0.2734X0.0033*%
%ADD54R,0.0134X0.0033*%
%ADD55R,0.0234X0.0033*%
%ADD56R,0.0100X0.0033*%
%ADD57R,0.0300X0.0033*%
%ADD58R,0.0100X0.0033*%
%ADD59R,0.0366X0.0033*%
%ADD60R,0.2633X0.0033*%
%ADD61R,0.0467X0.0033*%
%ADD62R,0.0533X0.0033*%
%ADD63R,0.2567X0.0033*%
%ADD64R,0.0600X0.0033*%
%ADD65R,0.2533X0.0033*%
%ADD66R,0.0667X0.0033*%
%ADD67R,0.0700X0.0033*%
%ADD68R,0.2533X0.0033*%
%ADD69R,0.0800X0.0033*%
%ADD70R,0.2500X0.0033*%
%ADD71R,0.0066X0.0033*%
%ADD72R,0.0900X0.0033*%
%ADD73R,0.2466X0.0033*%
%ADD74R,0.0433X0.0033*%
%ADD75R,0.2466X0.0033*%
%ADD76R,0.1867X0.0033*%
%ADD77R,0.2433X0.0033*%
%ADD78R,0.1966X0.0033*%
%ADD79R,0.2400X0.0033*%
%ADD80R,0.2034X0.0033*%
%ADD81R,0.2400X0.0033*%
%ADD82R,0.2067X0.0033*%
%ADD83R,0.2366X0.0033*%
%ADD84R,0.2133X0.0033*%
%ADD85R,0.0067X0.0033*%
%ADD86R,0.2167X0.0033*%
%ADD87R,0.2300X0.0033*%
%ADD88R,0.2200X0.0033*%
%ADD89R,0.2300X0.0033*%
%ADD90R,0.2233X0.0033*%
%ADD91R,0.2233X0.0033*%
%ADD92R,0.2267X0.0033*%
%ADD93R,0.2267X0.0033*%
%ADD94R,0.2234X0.0033*%
%ADD95R,0.2234X0.0033*%
%ADD96R,0.2333X0.0033*%
%ADD97R,0.2367X0.0033*%
%ADD98R,0.2166X0.0033*%
%ADD99R,0.2367X0.0033*%
%ADD100R,0.2166X0.0033*%
%ADD101R,0.2333X0.0033*%
%ADD102R,0.2100X0.0033*%
%ADD103R,0.2100X0.0033*%
%ADD104R,0.2066X0.0033*%
%ADD105R,0.2000X0.0033*%
%ADD106R,0.2000X0.0033*%
%ADD107R,0.1966X0.0033*%
%ADD108R,0.1933X0.0033*%
%ADD109R,0.1900X0.0033*%
%ADD110R,0.2200X0.0033*%
%ADD111R,0.1833X0.0033*%
%ADD112R,0.2167X0.0033*%
%ADD113R,0.1800X0.0033*%
%ADD114R,0.1766X0.0033*%
%ADD115R,0.0767X0.0033*%
%ADD116R,0.1200X0.0033*%
%ADD117R,0.0133X0.0033*%
%ADD118R,0.1267X0.0033*%
%ADD119R,0.0700X0.0033*%
%ADD120R,0.1067X0.0033*%
%ADD121R,0.1166X0.0033*%
%ADD122R,0.0333X0.0033*%
%ADD123R,0.1134X0.0033*%
%ADD124R,0.0734X0.0033*%
%ADD125R,0.0466X0.0033*%
%ADD126R,0.1100X0.0033*%
%ADD127R,0.1000X0.0033*%
%ADD128R,0.0933X0.0033*%
%ADD129R,0.0867X0.0033*%
%ADD130R,0.0633X0.0033*%
%ADD131R,0.0567X0.0033*%
%ADD132R,0.0033X0.0033*%
%ADD133R,0.0166X0.0033*%
%ADD134R,0.0167X0.0033*%
%ADD135R,0.0200X0.0033*%
%ADD136R,0.0233X0.0033*%
%ADD137R,0.0766X0.0033*%
%ADD138R,0.0500X0.0033*%
%ADD139C,0.0059*%
D10*
X004530Y003833D02*
X004653Y003710D01*
X004777Y003833D01*
X004777Y004080D01*
X004898Y004019D02*
X004960Y004080D01*
X005083Y004080D01*
X005145Y004019D01*
X005145Y003957D01*
X004898Y003710D01*
X005145Y003710D01*
X004530Y003833D02*
X004530Y004080D01*
X002677Y006635D02*
X002530Y006635D01*
X002677Y006782D01*
X002677Y006818D01*
X002640Y006855D01*
X002567Y006855D01*
X002530Y006818D01*
X002446Y006818D02*
X002410Y006855D01*
X002336Y006855D01*
X002300Y006818D01*
X002300Y006672D01*
X002336Y006635D01*
X002410Y006635D01*
X002446Y006672D01*
X002355Y010610D02*
X002232Y010733D01*
X002293Y010733D02*
X002108Y010733D01*
X002108Y010610D02*
X002108Y010980D01*
X002293Y010980D01*
X002355Y010919D01*
X002355Y010795D01*
X002293Y010733D01*
X002477Y010672D02*
X002477Y010919D01*
X002538Y010980D01*
X002662Y010980D01*
X002724Y010919D01*
X002724Y010672D01*
X002662Y010610D01*
X002538Y010610D01*
X002477Y010672D01*
X002845Y010672D02*
X002845Y010980D01*
X003092Y010980D02*
X003092Y010672D01*
X003030Y010610D01*
X002907Y010610D01*
X002845Y010672D01*
X003213Y010610D02*
X003213Y010980D01*
X003460Y010610D01*
X003460Y010980D01*
X003582Y010980D02*
X003582Y010610D01*
X003767Y010610D01*
X003828Y010672D01*
X003828Y010919D01*
X003767Y010980D01*
X003582Y010980D01*
X003602Y011580D02*
X003848Y011827D01*
X003848Y011889D01*
X003787Y011950D01*
X003663Y011950D01*
X003602Y011889D01*
X003357Y011950D02*
X003357Y011580D01*
X003480Y011580D02*
X003233Y011580D01*
X003112Y011642D02*
X003050Y011580D01*
X002927Y011580D01*
X002865Y011642D01*
X002865Y011703D01*
X002927Y011765D01*
X003050Y011765D01*
X003112Y011703D01*
X003112Y011642D01*
X003050Y011765D02*
X003112Y011827D01*
X003112Y011889D01*
X003050Y011950D01*
X002927Y011950D01*
X002865Y011889D01*
X002865Y011827D01*
X002927Y011765D01*
X002744Y011827D02*
X002744Y011889D01*
X002682Y011950D01*
X002558Y011950D01*
X002497Y011889D01*
X002375Y011889D02*
X002313Y011950D01*
X002190Y011950D01*
X002128Y011889D01*
X002128Y011827D01*
X002190Y011765D01*
X002313Y011765D01*
X002375Y011703D01*
X002375Y011642D01*
X002313Y011580D01*
X002190Y011580D01*
X002128Y011642D01*
X002007Y011580D02*
X002007Y011950D01*
X001760Y011950D02*
X001760Y011580D01*
X001883Y011703D01*
X002007Y011580D01*
X002497Y011580D02*
X002744Y011827D01*
X002744Y011580D02*
X002497Y011580D01*
X003233Y011827D02*
X003357Y011950D01*
X003602Y011580D02*
X003848Y011580D01*
X003970Y011580D02*
X004155Y011580D01*
X004217Y011642D01*
X004217Y011703D01*
X004155Y011765D01*
X003970Y011765D01*
X003970Y011580D02*
X003970Y011950D01*
X004155Y011950D01*
X004217Y011889D01*
X004217Y011827D01*
X004155Y011765D01*
X002395Y012743D02*
X002272Y012620D01*
X002148Y012743D01*
X002148Y012990D01*
X002027Y012990D02*
X001780Y012990D01*
X001780Y012805D01*
X001903Y012867D01*
X001965Y012867D01*
X002027Y012805D01*
X002027Y012682D01*
X001965Y012620D01*
X001842Y012620D01*
X001780Y012682D01*
X002395Y012743D02*
X002395Y012990D01*
X001925Y010980D02*
X001802Y010980D01*
X001740Y010919D01*
X001740Y010672D01*
X001802Y010610D01*
X001925Y010610D01*
X001987Y010672D01*
X001987Y010795D01*
X001863Y010795D01*
X001987Y010919D02*
X001925Y010980D01*
X005524Y016347D02*
X005586Y016347D01*
X005647Y016408D01*
X005647Y016717D01*
X005462Y016717D01*
X005400Y016655D01*
X005400Y016532D01*
X005462Y016470D01*
X005647Y016470D01*
X005769Y016532D02*
X005830Y016470D01*
X006016Y016470D01*
X006016Y016408D02*
X005954Y016347D01*
X005892Y016347D01*
X006016Y016408D02*
X006016Y016717D01*
X005769Y016717D02*
X005769Y016532D01*
X005279Y016532D02*
X005279Y016655D01*
X005217Y016717D01*
X005094Y016717D01*
X005032Y016655D01*
X005032Y016532D01*
X005094Y016470D01*
X005217Y016470D01*
X005279Y016532D01*
X004910Y016470D02*
X004787Y016470D01*
X004848Y016470D02*
X004848Y016840D01*
X004787Y016840D01*
X004603Y016717D02*
X004480Y016717D01*
X004418Y016655D01*
X004418Y016532D01*
X004480Y016470D01*
X004603Y016470D01*
X004665Y016532D01*
X004665Y016655D01*
X004603Y016717D01*
X004297Y016655D02*
X004297Y016470D01*
X004297Y016655D02*
X004235Y016717D01*
X004050Y016717D01*
X004050Y016470D01*
X003928Y016470D02*
X003928Y016655D01*
X003867Y016717D01*
X003743Y016717D01*
X003682Y016655D01*
X003560Y016717D02*
X003375Y016717D01*
X003313Y016655D01*
X003313Y016532D01*
X003375Y016470D01*
X003560Y016470D01*
X003682Y016470D02*
X003682Y016840D01*
X003560Y017008D02*
X003498Y016947D01*
X003437Y016947D01*
X003560Y017008D02*
X003560Y017317D01*
X003313Y017317D02*
X003313Y017132D01*
X003375Y017070D01*
X003560Y017070D01*
X003192Y017132D02*
X003130Y017070D01*
X002945Y017070D01*
X002945Y016947D02*
X002945Y017317D01*
X003130Y017317D01*
X003192Y017255D01*
X003192Y017132D01*
X002824Y017132D02*
X002762Y017070D01*
X002577Y017070D01*
X002455Y017070D02*
X002270Y017070D01*
X002208Y017132D01*
X002270Y017193D01*
X002455Y017193D01*
X002455Y017255D02*
X002455Y017070D01*
X002577Y016947D02*
X002577Y017317D01*
X002762Y017317D01*
X002824Y017255D01*
X002824Y017132D01*
X002824Y016840D02*
X002577Y016840D01*
X002700Y016840D02*
X002700Y016470D01*
X002945Y016532D02*
X002945Y016655D01*
X003007Y016717D01*
X003130Y016717D01*
X003192Y016655D01*
X003192Y016593D01*
X002945Y016593D01*
X002945Y016532D02*
X003007Y016470D01*
X003130Y016470D01*
X002455Y017255D02*
X002393Y017317D01*
X002270Y017317D01*
X002087Y017255D02*
X001840Y017255D01*
X001840Y017070D02*
X001840Y017440D01*
X002087Y017440D02*
X002087Y017070D01*
X004050Y017070D02*
X004235Y017070D01*
X004297Y017132D01*
X004297Y017193D01*
X004235Y017255D01*
X004050Y017255D01*
X004050Y017070D02*
X004050Y017440D01*
X004235Y017440D01*
X004297Y017379D01*
X004297Y017317D01*
X004235Y017255D01*
X004418Y017317D02*
X004418Y017132D01*
X004480Y017070D01*
X004665Y017070D01*
X004665Y017317D01*
X004787Y017317D02*
X004972Y017317D01*
X005033Y017255D01*
X005033Y017132D01*
X004972Y017070D01*
X004787Y017070D01*
X004787Y017440D01*
X005155Y017440D02*
X005155Y017070D01*
X005340Y017070D01*
X005402Y017132D01*
X005402Y017255D01*
X005340Y017317D01*
X005155Y017317D01*
X005523Y017440D02*
X005585Y017440D01*
X005585Y017070D01*
X005523Y017070D02*
X005647Y017070D01*
X005769Y017132D02*
X005769Y017255D01*
X005830Y017317D01*
X005954Y017317D01*
X006016Y017255D01*
X006016Y017193D01*
X005769Y017193D01*
X005769Y017132D02*
X005830Y017070D01*
X005954Y017070D01*
X006137Y017070D02*
X006322Y017070D01*
X006384Y017132D01*
X006322Y017193D01*
X006199Y017193D01*
X006137Y017255D01*
X006199Y017317D01*
X006384Y017317D01*
X016880Y010699D02*
X016880Y010452D01*
X016942Y010390D01*
X017065Y010390D01*
X017127Y010452D01*
X017127Y010575D01*
X017003Y010575D01*
X016880Y010699D02*
X016942Y010760D01*
X017065Y010760D01*
X017127Y010699D01*
X017248Y010760D02*
X017248Y010390D01*
X017248Y010513D02*
X017433Y010513D01*
X017495Y010575D01*
X017495Y010699D01*
X017433Y010760D01*
X017248Y010760D01*
X017372Y010513D02*
X017495Y010390D01*
X017617Y010452D02*
X017678Y010390D01*
X017802Y010390D01*
X017864Y010452D01*
X017864Y010699D01*
X017802Y010760D01*
X017678Y010760D01*
X017617Y010699D01*
X017617Y010452D01*
X017985Y010452D02*
X018047Y010390D01*
X018170Y010390D01*
X018232Y010452D01*
X018232Y010760D01*
X018353Y010760D02*
X018353Y010390D01*
X018600Y010390D02*
X018353Y010760D01*
X018600Y010760D02*
X018600Y010390D01*
X018722Y010390D02*
X018907Y010390D01*
X018968Y010452D01*
X018968Y010699D01*
X018907Y010760D01*
X018722Y010760D01*
X018722Y010390D01*
X018675Y009730D02*
X018675Y009360D01*
X018922Y009360D01*
X018798Y009545D02*
X018675Y009545D01*
X018554Y009483D02*
X018554Y009422D01*
X018492Y009360D01*
X018368Y009360D01*
X018307Y009422D01*
X018185Y009360D02*
X017938Y009360D01*
X017938Y009730D01*
X018185Y009730D01*
X018307Y009669D02*
X018307Y009607D01*
X018368Y009545D01*
X018492Y009545D01*
X018554Y009483D01*
X018554Y009669D02*
X018492Y009730D01*
X018368Y009730D01*
X018307Y009669D01*
X018062Y009545D02*
X017938Y009545D01*
X017817Y009545D02*
X017755Y009483D01*
X017570Y009483D01*
X017570Y009360D02*
X017570Y009730D01*
X017755Y009730D01*
X017817Y009669D01*
X017817Y009545D01*
X017693Y009483D02*
X017817Y009360D01*
X018252Y008730D02*
X018375Y008730D01*
X018437Y008669D01*
X018437Y008607D01*
X018375Y008545D01*
X018437Y008483D01*
X018437Y008422D01*
X018375Y008360D01*
X018252Y008360D01*
X018190Y008422D01*
X018313Y008545D02*
X018375Y008545D01*
X018558Y008422D02*
X018620Y008422D01*
X018620Y008360D01*
X018558Y008360D01*
X018558Y008422D01*
X018742Y008422D02*
X018804Y008360D01*
X018928Y008360D01*
X018989Y008422D01*
X018989Y008483D01*
X018928Y008545D01*
X018866Y008545D01*
X018928Y008545D02*
X018989Y008607D01*
X018989Y008669D01*
X018928Y008730D01*
X018804Y008730D01*
X018742Y008669D01*
X019111Y008730D02*
X019111Y008483D01*
X019234Y008360D01*
X019358Y008483D01*
X019358Y008730D01*
X019167Y009360D02*
X019167Y009730D01*
X019290Y009730D02*
X019043Y009730D01*
X018922Y009730D02*
X018675Y009730D01*
X017985Y010452D02*
X017985Y010760D01*
X018570Y011390D02*
X018570Y011760D01*
X018817Y011390D01*
X018817Y011760D01*
X018938Y011699D02*
X018938Y011452D01*
X019000Y011390D01*
X019123Y011390D01*
X019185Y011452D01*
X019185Y011699D02*
X019123Y011760D01*
X019000Y011760D01*
X018938Y011699D01*
X018994Y012380D02*
X018932Y012442D01*
X018932Y012689D01*
X018994Y012750D01*
X019117Y012750D01*
X019179Y012689D01*
X019179Y012442D01*
X019117Y012380D01*
X018994Y012380D01*
X018811Y012442D02*
X018811Y012503D01*
X018749Y012565D01*
X018626Y012565D01*
X018564Y012627D01*
X018564Y012689D01*
X018626Y012750D01*
X018749Y012750D01*
X018811Y012689D01*
X018811Y012442D02*
X018749Y012380D01*
X018626Y012380D01*
X018564Y012442D01*
X018442Y012380D02*
X018318Y012380D01*
X018380Y012380D02*
X018380Y012750D01*
X018318Y012750D02*
X018442Y012750D01*
X018197Y012750D02*
X018197Y012380D01*
X017950Y012380D02*
X017950Y012750D01*
X018073Y012627D01*
X018197Y012750D01*
X018197Y013410D02*
X018197Y013780D01*
X018073Y013657D01*
X017950Y013780D01*
X017950Y013410D01*
X018318Y013472D02*
X018380Y013410D01*
X018503Y013410D01*
X018565Y013472D01*
X018565Y013719D01*
X018503Y013780D01*
X018380Y013780D01*
X018318Y013719D01*
X018318Y013472D01*
X018687Y013472D02*
X018748Y013410D01*
X018872Y013410D01*
X018934Y013472D01*
X018934Y013533D01*
X018872Y013595D01*
X018748Y013595D01*
X018687Y013657D01*
X018687Y013719D01*
X018748Y013780D01*
X018872Y013780D01*
X018934Y013719D01*
X019055Y013780D02*
X019178Y013780D01*
X019117Y013780D02*
X019117Y013410D01*
X019178Y013410D02*
X019055Y013410D01*
X018947Y014420D02*
X018947Y014790D01*
X018825Y014729D02*
X018763Y014790D01*
X018640Y014790D01*
X018578Y014729D01*
X018578Y014482D01*
X018640Y014420D01*
X018763Y014420D01*
X018825Y014482D01*
X018947Y014543D02*
X019194Y014790D01*
X019008Y014605D02*
X019194Y014420D01*
X018457Y014482D02*
X018395Y014420D01*
X018272Y014420D01*
X018210Y014482D01*
X018272Y014605D02*
X018395Y014605D01*
X018457Y014543D01*
X018457Y014482D01*
X018272Y014605D02*
X018210Y014667D01*
X018210Y014729D01*
X018272Y014790D01*
X018395Y014790D01*
X018457Y014729D01*
X018435Y015470D02*
X018312Y015470D01*
X018250Y015532D01*
X018312Y015655D02*
X018250Y015717D01*
X018250Y015779D01*
X018312Y015840D01*
X018435Y015840D01*
X018497Y015779D01*
X018618Y015840D02*
X018618Y015470D01*
X018803Y015470D01*
X018865Y015532D01*
X018865Y015779D01*
X018803Y015840D01*
X018618Y015840D01*
X018435Y015655D02*
X018497Y015593D01*
X018497Y015532D01*
X018435Y015470D01*
X018435Y015655D02*
X018312Y015655D01*
X018987Y015655D02*
X019234Y015655D01*
X019234Y015717D02*
X019234Y015470D01*
X019234Y015717D02*
X019110Y015840D01*
X018987Y015717D01*
X018987Y015470D01*
X018252Y008730D02*
X018190Y008669D01*
D11*
X014445Y003425D02*
X014447Y003475D01*
X014453Y003525D01*
X014463Y003574D01*
X014477Y003622D01*
X014494Y003669D01*
X014515Y003714D01*
X014540Y003758D01*
X014568Y003799D01*
X014600Y003838D01*
X014634Y003875D01*
X014671Y003909D01*
X014711Y003939D01*
X014753Y003966D01*
X014797Y003990D01*
X014843Y004011D01*
X014890Y004027D01*
X014938Y004040D01*
X014988Y004049D01*
X015037Y004054D01*
X015088Y004055D01*
X015138Y004052D01*
X015187Y004045D01*
X015236Y004034D01*
X015284Y004019D01*
X015330Y004001D01*
X015375Y003979D01*
X015418Y003953D01*
X015459Y003924D01*
X015498Y003892D01*
X015534Y003857D01*
X015566Y003819D01*
X015596Y003779D01*
X015623Y003736D01*
X015646Y003692D01*
X015665Y003646D01*
X015681Y003598D01*
X015693Y003549D01*
X015701Y003500D01*
X015705Y003450D01*
X015705Y003400D01*
X015701Y003350D01*
X015693Y003301D01*
X015681Y003252D01*
X015665Y003204D01*
X015646Y003158D01*
X015623Y003114D01*
X015596Y003071D01*
X015566Y003031D01*
X015534Y002993D01*
X015498Y002958D01*
X015459Y002926D01*
X015418Y002897D01*
X015375Y002871D01*
X015330Y002849D01*
X015284Y002831D01*
X015236Y002816D01*
X015187Y002805D01*
X015138Y002798D01*
X015088Y002795D01*
X015037Y002796D01*
X014988Y002801D01*
X014938Y002810D01*
X014890Y002823D01*
X014843Y002839D01*
X014797Y002860D01*
X014753Y002884D01*
X014711Y002911D01*
X014671Y002941D01*
X014634Y002975D01*
X014600Y003012D01*
X014568Y003051D01*
X014540Y003092D01*
X014515Y003136D01*
X014494Y003181D01*
X014477Y003228D01*
X014463Y003276D01*
X014453Y003325D01*
X014447Y003375D01*
X014445Y003425D01*
X006445Y003425D02*
X006447Y003475D01*
X006453Y003525D01*
X006463Y003574D01*
X006477Y003622D01*
X006494Y003669D01*
X006515Y003714D01*
X006540Y003758D01*
X006568Y003799D01*
X006600Y003838D01*
X006634Y003875D01*
X006671Y003909D01*
X006711Y003939D01*
X006753Y003966D01*
X006797Y003990D01*
X006843Y004011D01*
X006890Y004027D01*
X006938Y004040D01*
X006988Y004049D01*
X007037Y004054D01*
X007088Y004055D01*
X007138Y004052D01*
X007187Y004045D01*
X007236Y004034D01*
X007284Y004019D01*
X007330Y004001D01*
X007375Y003979D01*
X007418Y003953D01*
X007459Y003924D01*
X007498Y003892D01*
X007534Y003857D01*
X007566Y003819D01*
X007596Y003779D01*
X007623Y003736D01*
X007646Y003692D01*
X007665Y003646D01*
X007681Y003598D01*
X007693Y003549D01*
X007701Y003500D01*
X007705Y003450D01*
X007705Y003400D01*
X007701Y003350D01*
X007693Y003301D01*
X007681Y003252D01*
X007665Y003204D01*
X007646Y003158D01*
X007623Y003114D01*
X007596Y003071D01*
X007566Y003031D01*
X007534Y002993D01*
X007498Y002958D01*
X007459Y002926D01*
X007418Y002897D01*
X007375Y002871D01*
X007330Y002849D01*
X007284Y002831D01*
X007236Y002816D01*
X007187Y002805D01*
X007138Y002798D01*
X007088Y002795D01*
X007037Y002796D01*
X006988Y002801D01*
X006938Y002810D01*
X006890Y002823D01*
X006843Y002839D01*
X006797Y002860D01*
X006753Y002884D01*
X006711Y002911D01*
X006671Y002941D01*
X006634Y002975D01*
X006600Y003012D01*
X006568Y003051D01*
X006540Y003092D01*
X006515Y003136D01*
X006494Y003181D01*
X006477Y003228D01*
X006463Y003276D01*
X006453Y003325D01*
X006447Y003375D01*
X006445Y003425D01*
X004052Y019255D02*
X004054Y019304D01*
X004060Y019352D01*
X004070Y019399D01*
X004083Y019446D01*
X004100Y019491D01*
X004121Y019535D01*
X004145Y019577D01*
X004173Y019617D01*
X004204Y019655D01*
X004237Y019690D01*
X004274Y019722D01*
X004312Y019751D01*
X004353Y019777D01*
X004396Y019800D01*
X004441Y019819D01*
X004487Y019834D01*
X004534Y019846D01*
X004582Y019854D01*
X004631Y019858D01*
X004679Y019858D01*
X004728Y019854D01*
X004776Y019846D01*
X004823Y019834D01*
X004869Y019819D01*
X004914Y019800D01*
X004956Y019777D01*
X004998Y019751D01*
X005036Y019722D01*
X005073Y019690D01*
X005106Y019655D01*
X005137Y019617D01*
X005165Y019577D01*
X005189Y019535D01*
X005210Y019491D01*
X005227Y019446D01*
X005240Y019399D01*
X005250Y019352D01*
X005256Y019304D01*
X005258Y019255D01*
X005256Y019206D01*
X005250Y019158D01*
X005240Y019111D01*
X005227Y019064D01*
X005210Y019019D01*
X005189Y018975D01*
X005165Y018933D01*
X005137Y018893D01*
X005106Y018855D01*
X005073Y018820D01*
X005036Y018788D01*
X004998Y018759D01*
X004957Y018733D01*
X004914Y018710D01*
X004869Y018691D01*
X004823Y018676D01*
X004776Y018664D01*
X004728Y018656D01*
X004679Y018652D01*
X004631Y018652D01*
X004582Y018656D01*
X004534Y018664D01*
X004487Y018676D01*
X004441Y018691D01*
X004396Y018710D01*
X004354Y018733D01*
X004312Y018759D01*
X004274Y018788D01*
X004237Y018820D01*
X004204Y018855D01*
X004173Y018893D01*
X004145Y018933D01*
X004121Y018975D01*
X004100Y019019D01*
X004083Y019064D01*
X004070Y019111D01*
X004060Y019158D01*
X004054Y019206D01*
X004052Y019255D01*
X006445Y020425D02*
X006447Y020475D01*
X006453Y020525D01*
X006463Y020574D01*
X006477Y020622D01*
X006494Y020669D01*
X006515Y020714D01*
X006540Y020758D01*
X006568Y020799D01*
X006600Y020838D01*
X006634Y020875D01*
X006671Y020909D01*
X006711Y020939D01*
X006753Y020966D01*
X006797Y020990D01*
X006843Y021011D01*
X006890Y021027D01*
X006938Y021040D01*
X006988Y021049D01*
X007037Y021054D01*
X007088Y021055D01*
X007138Y021052D01*
X007187Y021045D01*
X007236Y021034D01*
X007284Y021019D01*
X007330Y021001D01*
X007375Y020979D01*
X007418Y020953D01*
X007459Y020924D01*
X007498Y020892D01*
X007534Y020857D01*
X007566Y020819D01*
X007596Y020779D01*
X007623Y020736D01*
X007646Y020692D01*
X007665Y020646D01*
X007681Y020598D01*
X007693Y020549D01*
X007701Y020500D01*
X007705Y020450D01*
X007705Y020400D01*
X007701Y020350D01*
X007693Y020301D01*
X007681Y020252D01*
X007665Y020204D01*
X007646Y020158D01*
X007623Y020114D01*
X007596Y020071D01*
X007566Y020031D01*
X007534Y019993D01*
X007498Y019958D01*
X007459Y019926D01*
X007418Y019897D01*
X007375Y019871D01*
X007330Y019849D01*
X007284Y019831D01*
X007236Y019816D01*
X007187Y019805D01*
X007138Y019798D01*
X007088Y019795D01*
X007037Y019796D01*
X006988Y019801D01*
X006938Y019810D01*
X006890Y019823D01*
X006843Y019839D01*
X006797Y019860D01*
X006753Y019884D01*
X006711Y019911D01*
X006671Y019941D01*
X006634Y019975D01*
X006600Y020012D01*
X006568Y020051D01*
X006540Y020092D01*
X006515Y020136D01*
X006494Y020181D01*
X006477Y020228D01*
X006463Y020276D01*
X006453Y020325D01*
X006447Y020375D01*
X006445Y020425D01*
X014445Y020425D02*
X014447Y020475D01*
X014453Y020525D01*
X014463Y020574D01*
X014477Y020622D01*
X014494Y020669D01*
X014515Y020714D01*
X014540Y020758D01*
X014568Y020799D01*
X014600Y020838D01*
X014634Y020875D01*
X014671Y020909D01*
X014711Y020939D01*
X014753Y020966D01*
X014797Y020990D01*
X014843Y021011D01*
X014890Y021027D01*
X014938Y021040D01*
X014988Y021049D01*
X015037Y021054D01*
X015088Y021055D01*
X015138Y021052D01*
X015187Y021045D01*
X015236Y021034D01*
X015284Y021019D01*
X015330Y021001D01*
X015375Y020979D01*
X015418Y020953D01*
X015459Y020924D01*
X015498Y020892D01*
X015534Y020857D01*
X015566Y020819D01*
X015596Y020779D01*
X015623Y020736D01*
X015646Y020692D01*
X015665Y020646D01*
X015681Y020598D01*
X015693Y020549D01*
X015701Y020500D01*
X015705Y020450D01*
X015705Y020400D01*
X015701Y020350D01*
X015693Y020301D01*
X015681Y020252D01*
X015665Y020204D01*
X015646Y020158D01*
X015623Y020114D01*
X015596Y020071D01*
X015566Y020031D01*
X015534Y019993D01*
X015498Y019958D01*
X015459Y019926D01*
X015418Y019897D01*
X015375Y019871D01*
X015330Y019849D01*
X015284Y019831D01*
X015236Y019816D01*
X015187Y019805D01*
X015138Y019798D01*
X015088Y019795D01*
X015037Y019796D01*
X014988Y019801D01*
X014938Y019810D01*
X014890Y019823D01*
X014843Y019839D01*
X014797Y019860D01*
X014753Y019884D01*
X014711Y019911D01*
X014671Y019941D01*
X014634Y019975D01*
X014600Y020012D01*
X014568Y020051D01*
X014540Y020092D01*
X014515Y020136D01*
X014494Y020181D01*
X014477Y020228D01*
X014463Y020276D01*
X014453Y020325D01*
X014447Y020375D01*
X014445Y020425D01*
X017052Y019255D02*
X017054Y019304D01*
X017060Y019352D01*
X017070Y019399D01*
X017083Y019446D01*
X017100Y019491D01*
X017121Y019535D01*
X017145Y019577D01*
X017173Y019617D01*
X017204Y019655D01*
X017237Y019690D01*
X017274Y019722D01*
X017312Y019751D01*
X017353Y019777D01*
X017396Y019800D01*
X017441Y019819D01*
X017487Y019834D01*
X017534Y019846D01*
X017582Y019854D01*
X017631Y019858D01*
X017679Y019858D01*
X017728Y019854D01*
X017776Y019846D01*
X017823Y019834D01*
X017869Y019819D01*
X017914Y019800D01*
X017956Y019777D01*
X017998Y019751D01*
X018036Y019722D01*
X018073Y019690D01*
X018106Y019655D01*
X018137Y019617D01*
X018165Y019577D01*
X018189Y019535D01*
X018210Y019491D01*
X018227Y019446D01*
X018240Y019399D01*
X018250Y019352D01*
X018256Y019304D01*
X018258Y019255D01*
X018256Y019206D01*
X018250Y019158D01*
X018240Y019111D01*
X018227Y019064D01*
X018210Y019019D01*
X018189Y018975D01*
X018165Y018933D01*
X018137Y018893D01*
X018106Y018855D01*
X018073Y018820D01*
X018036Y018788D01*
X017998Y018759D01*
X017957Y018733D01*
X017914Y018710D01*
X017869Y018691D01*
X017823Y018676D01*
X017776Y018664D01*
X017728Y018656D01*
X017679Y018652D01*
X017631Y018652D01*
X017582Y018656D01*
X017534Y018664D01*
X017487Y018676D01*
X017441Y018691D01*
X017396Y018710D01*
X017354Y018733D01*
X017312Y018759D01*
X017274Y018788D01*
X017237Y018820D01*
X017204Y018855D01*
X017173Y018893D01*
X017145Y018933D01*
X017121Y018975D01*
X017100Y019019D01*
X017083Y019064D01*
X017070Y019111D01*
X017060Y019158D01*
X017054Y019206D01*
X017052Y019255D01*
D12*
X013600Y017140D02*
X013600Y016715D01*
X013515Y016630D01*
X013344Y016630D01*
X013259Y016715D01*
X013259Y017140D01*
X013093Y017055D02*
X013008Y017140D01*
X012838Y017140D01*
X012753Y017055D01*
X012753Y016715D01*
X012838Y016630D01*
X013008Y016630D01*
X013093Y016715D01*
X012587Y016630D02*
X012587Y017140D01*
X012417Y016970D01*
X012246Y017140D01*
X012246Y016630D01*
X012080Y016630D02*
X011740Y016630D01*
X011740Y017140D01*
X012080Y017140D01*
X011910Y016885D02*
X011740Y016885D01*
X011574Y016715D02*
X011574Y017055D01*
X011489Y017140D01*
X011234Y017140D01*
X011234Y016630D01*
X011489Y016630D01*
X011574Y016715D01*
X011489Y016315D02*
X011234Y016315D01*
X011234Y015805D01*
X011067Y015805D02*
X010727Y015805D01*
X010727Y016315D01*
X011067Y016315D01*
X010897Y016060D02*
X010727Y016060D01*
X010561Y016060D02*
X010221Y016060D01*
X010221Y015805D02*
X010221Y016315D01*
X010221Y016630D02*
X010221Y017140D01*
X010561Y016630D01*
X010561Y017140D01*
X010727Y017055D02*
X010727Y016715D01*
X010812Y016630D01*
X010982Y016630D01*
X011067Y016715D01*
X011067Y017055D01*
X010982Y017140D01*
X010812Y017140D01*
X010727Y017055D01*
X010561Y016315D02*
X010561Y015805D01*
X011234Y015975D02*
X011489Y015975D01*
X011574Y016060D01*
X011574Y016230D01*
X011489Y016315D01*
X011740Y016315D02*
X011740Y015805D01*
X012080Y015805D01*
X011910Y016060D02*
X011740Y016060D01*
X011740Y016315D02*
X012080Y016315D01*
X011574Y015805D02*
X011404Y015975D01*
X009548Y017140D02*
X009208Y017140D01*
X009042Y017140D02*
X009042Y016715D01*
X008957Y016630D01*
X008787Y016630D01*
X008701Y016715D01*
X008701Y017140D01*
X008535Y017055D02*
X008535Y016885D01*
X008450Y016800D01*
X008195Y016800D01*
X008195Y016630D02*
X008195Y017140D01*
X008450Y017140D01*
X008535Y017055D01*
X009378Y017140D02*
X009378Y016630D01*
X003802Y007207D02*
X003418Y007207D01*
X003418Y006977D01*
X003495Y006900D01*
X003648Y006900D01*
X003725Y006977D01*
X003725Y007207D01*
X003802Y007207D02*
X003878Y007130D01*
X003878Y007053D01*
X003725Y006747D02*
X003725Y006593D01*
X003725Y006670D02*
X003418Y006670D01*
X003418Y006593D01*
X003495Y006440D02*
X003495Y006286D01*
X003495Y006133D02*
X003725Y006133D01*
X003725Y006363D02*
X003341Y006363D01*
X003265Y006440D01*
X003265Y006670D02*
X003188Y006670D01*
X003495Y006133D02*
X003418Y006056D01*
X003418Y005826D01*
X003725Y005826D01*
X003648Y005672D02*
X003495Y005672D01*
X003418Y005596D01*
X003418Y005442D01*
X003495Y005365D01*
X003648Y005365D01*
X003725Y005442D01*
X003725Y005596D01*
X003648Y005672D01*
X003648Y005212D02*
X003725Y005135D01*
X003725Y004982D01*
X003648Y004905D01*
X003341Y004905D01*
X003265Y004982D01*
X003265Y005135D01*
X003341Y005212D01*
D13*
X003669Y007821D02*
X001701Y007821D01*
X001701Y009435D01*
X002055Y009789D01*
X002173Y009907D01*
X002016Y010065D01*
X001701Y009789D01*
X002055Y009789D01*
X003669Y009789D01*
X003669Y007821D01*
X002008Y008805D02*
X002010Y008857D01*
X002016Y008908D01*
X002026Y008959D01*
X002040Y009009D01*
X002057Y009058D01*
X002078Y009105D01*
X002103Y009151D01*
X002131Y009194D01*
X002163Y009236D01*
X002197Y009274D01*
X002235Y009310D01*
X002275Y009343D01*
X002317Y009373D01*
X002362Y009400D01*
X002408Y009423D01*
X002456Y009442D01*
X002506Y009458D01*
X002556Y009470D01*
X002607Y009478D01*
X002659Y009482D01*
X002711Y009482D01*
X002763Y009478D01*
X002814Y009470D01*
X002864Y009458D01*
X002914Y009442D01*
X002962Y009423D01*
X003008Y009400D01*
X003053Y009373D01*
X003095Y009343D01*
X003135Y009310D01*
X003173Y009274D01*
X003207Y009236D01*
X003239Y009194D01*
X003267Y009151D01*
X003292Y009105D01*
X003313Y009058D01*
X003330Y009009D01*
X003344Y008959D01*
X003354Y008908D01*
X003360Y008857D01*
X003362Y008805D01*
X003360Y008753D01*
X003354Y008702D01*
X003344Y008651D01*
X003330Y008601D01*
X003313Y008552D01*
X003292Y008505D01*
X003267Y008459D01*
X003239Y008416D01*
X003207Y008374D01*
X003173Y008336D01*
X003135Y008300D01*
X003095Y008267D01*
X003053Y008237D01*
X003008Y008210D01*
X002962Y008187D01*
X002914Y008168D01*
X002864Y008152D01*
X002814Y008140D01*
X002763Y008132D01*
X002711Y008128D01*
X002659Y008128D01*
X002607Y008132D01*
X002556Y008140D01*
X002506Y008152D01*
X002456Y008168D01*
X002408Y008187D01*
X002362Y008210D01*
X002317Y008237D01*
X002275Y008267D01*
X002235Y008300D01*
X002197Y008336D01*
X002163Y008374D01*
X002131Y008416D01*
X002103Y008459D01*
X002078Y008505D01*
X002057Y008552D01*
X002040Y008601D01*
X002026Y008651D01*
X002016Y008702D01*
X002010Y008753D01*
X002008Y008805D01*
X001701Y009435D02*
X001701Y009789D01*
X008085Y012435D02*
X014075Y012435D01*
X014075Y021375D01*
X014055Y021415D02*
X008065Y021415D01*
X008085Y021445D02*
X008085Y012435D01*
X001025Y015995D02*
X000928Y015748D01*
X000838Y015499D01*
X000753Y015248D01*
X000675Y014995D01*
X000602Y014740D01*
X000537Y014483D01*
X000477Y014225D01*
X000424Y013965D01*
X000377Y013704D01*
X000336Y013442D01*
X000302Y013179D01*
X000274Y012916D01*
X000253Y012652D01*
X000238Y012387D01*
X000230Y012122D01*
X000228Y011857D01*
X000233Y011592D01*
X000244Y011327D01*
X000262Y011063D01*
X000286Y010799D01*
X000316Y010536D01*
X000353Y010273D01*
X000396Y010012D01*
X000446Y009752D01*
X000502Y009493D01*
X000564Y009235D01*
X000633Y008979D01*
X000708Y008725D01*
X000789Y008472D01*
X000876Y008222D01*
X000970Y007974D01*
X001069Y007728D01*
X001174Y007485D01*
X001286Y007245D01*
X001403Y007007D01*
X001525Y006772D01*
X001654Y006540D01*
X001788Y006312D01*
X001928Y006087D01*
X002073Y005865D01*
X002224Y005647D01*
X002380Y005433D01*
X002541Y005222D01*
X002707Y005016D01*
X002878Y004813D01*
X003054Y004615D01*
X003235Y004421D01*
X003420Y004232D01*
X003610Y004048D01*
X003805Y003868D01*
X004004Y003692D01*
X004207Y003522D01*
X004414Y003357D01*
X004625Y003197D01*
X004840Y003042D01*
X005059Y002892D01*
X005282Y002748D01*
X005507Y002609D01*
X005736Y002476D01*
X005969Y002349D01*
X006204Y002227D01*
X006442Y002111D01*
X006683Y002001D01*
X006927Y001896D01*
X007173Y001798D01*
X007422Y001706D01*
X007672Y001620D01*
X007925Y001540D01*
X008180Y001466D01*
X008436Y001399D01*
X008694Y001337D01*
X008953Y001283D01*
X009214Y001234D01*
X009475Y001192D01*
X009738Y001156D01*
X010001Y001127D01*
X010265Y001104D01*
X010530Y001087D01*
X010795Y001077D01*
X011060Y001074D01*
X011325Y001077D01*
X011589Y001086D01*
X011854Y001102D01*
X012118Y001125D01*
X012381Y001154D01*
X012644Y001189D01*
X012906Y001231D01*
X013166Y001279D01*
X013426Y001333D01*
X013684Y001394D01*
X013940Y001461D01*
X014195Y001534D01*
X014448Y001614D01*
X014698Y001700D01*
X014947Y001791D01*
X015193Y001889D01*
X015437Y001993D01*
X015679Y002103D01*
X015917Y002218D01*
X016153Y002340D01*
X016385Y002467D01*
X016614Y002600D01*
X016841Y002738D01*
X017063Y002882D01*
X017282Y003031D01*
X017497Y003186D01*
X017709Y003345D01*
X017916Y003510D01*
X018120Y003680D01*
X018319Y003855D01*
X018514Y004035D01*
X018704Y004219D01*
X018890Y004408D01*
X019071Y004601D01*
X019248Y004799D01*
X019419Y005001D01*
X019586Y005207D01*
X019747Y005417D01*
X019903Y005632D01*
X020054Y005849D01*
X020200Y006071D01*
X020340Y006296D01*
X020475Y006524D01*
X020604Y006756D01*
X020727Y006990D01*
X020844Y007228D01*
X020956Y007468D01*
X021062Y007711D01*
X021162Y007957D01*
X021255Y008205D01*
X020425Y008105D02*
X019425Y008105D01*
X019425Y016105D01*
X020425Y016105D01*
X020425Y008105D01*
X014075Y012395D02*
X014075Y012435D01*
X009075Y019445D02*
X009075Y020945D01*
X009565Y020945D01*
X009565Y020925D01*
X009545Y020925D01*
X009545Y019925D01*
X010085Y019925D01*
X010085Y020925D01*
X010575Y020925D01*
X010575Y019935D01*
X011065Y019935D01*
X011065Y020925D01*
X011575Y020925D01*
X011575Y019935D01*
X012075Y019935D01*
X012075Y020905D01*
X013075Y020905D01*
X013075Y020935D01*
X011605Y020925D02*
X011575Y020925D01*
X010085Y019925D02*
X010085Y019915D01*
X012585Y003925D02*
X012585Y003915D01*
X012585Y002495D01*
X009595Y002495D01*
X009575Y002515D02*
X009555Y002515D01*
X009555Y003915D01*
X012585Y003915D01*
D14*
X011961Y003319D02*
X011961Y003212D01*
X011854Y003105D01*
X011534Y003105D01*
X011317Y002999D02*
X011317Y002892D01*
X011210Y002785D01*
X010996Y002785D01*
X010890Y002892D01*
X010672Y002892D02*
X010672Y003426D01*
X010890Y003319D02*
X010890Y003212D01*
X010996Y003105D01*
X011210Y003105D01*
X011317Y002999D01*
X011534Y002785D02*
X011854Y002785D01*
X011961Y002892D01*
X011961Y002999D01*
X011854Y003105D01*
X011961Y003319D02*
X011854Y003426D01*
X011534Y003426D01*
X011534Y002785D01*
X011317Y003319D02*
X011210Y003426D01*
X010996Y003426D01*
X010890Y003319D01*
X010672Y002892D02*
X010565Y002785D01*
X010352Y002785D01*
X010245Y002892D01*
X010245Y003426D01*
X001625Y010525D02*
X001375Y010275D01*
X000875Y010275D01*
X000625Y010525D01*
X000625Y011025D01*
X000875Y011275D01*
X000625Y011525D01*
X000625Y012025D01*
X000875Y012275D01*
X000625Y012525D01*
X000625Y013025D01*
X000875Y013275D01*
X001375Y013275D01*
X001625Y013025D01*
X001625Y012525D01*
X001375Y012275D01*
X001625Y012025D01*
X001625Y011525D01*
X001375Y011275D01*
X001625Y011025D01*
X001625Y010525D01*
X001375Y011275D02*
X000875Y011275D01*
X000875Y012275D02*
X001375Y012275D01*
D15*
X004134Y007306D02*
X004292Y007306D01*
X004134Y007306D02*
X004117Y007305D01*
X004100Y007300D01*
X004085Y007293D01*
X004071Y007283D01*
X004059Y007271D01*
X004049Y007257D01*
X004042Y007242D01*
X004037Y007225D01*
X004036Y007208D01*
X004036Y005042D01*
X004037Y005025D01*
X004042Y005008D01*
X004049Y004993D01*
X004059Y004979D01*
X004071Y004967D01*
X004085Y004957D01*
X004100Y004950D01*
X004117Y004945D01*
X004134Y004944D01*
X004292Y004944D01*
X004430Y005534D02*
X005020Y005534D01*
X005020Y006716D01*
X004430Y006716D01*
X004430Y005534D01*
X005158Y004944D02*
X005316Y004944D01*
X005333Y004945D01*
X005350Y004950D01*
X005365Y004957D01*
X005379Y004967D01*
X005391Y004979D01*
X005401Y004993D01*
X005408Y005008D01*
X005413Y005025D01*
X005414Y005042D01*
X005414Y007208D01*
X005413Y007225D01*
X005408Y007242D01*
X005401Y007257D01*
X005391Y007271D01*
X005379Y007283D01*
X005365Y007293D01*
X005350Y007300D01*
X005333Y007305D01*
X005316Y007306D01*
X005158Y007306D01*
X001015Y015975D02*
X001113Y016221D01*
X001217Y016466D01*
X001328Y016707D01*
X001444Y016946D01*
X001566Y017182D01*
X001693Y017415D01*
X001827Y017644D01*
X001966Y017871D01*
X002110Y018093D01*
X002260Y018313D01*
X002415Y018528D01*
X002576Y018740D01*
X002741Y018947D01*
X002912Y019151D01*
X003088Y019350D01*
X003268Y019545D01*
X003453Y019735D01*
X003643Y019921D01*
X003837Y020102D01*
X004036Y020278D01*
X004239Y020450D01*
X004446Y020616D01*
X004657Y020777D01*
X004872Y020933D01*
X005091Y021084D01*
X005313Y021229D01*
X005539Y021369D01*
X005768Y021503D01*
X006000Y021631D01*
X006236Y021754D01*
X006474Y021871D01*
X006715Y021982D01*
X006959Y022087D01*
X007206Y022186D01*
X007454Y022279D01*
X007705Y022366D01*
X007958Y022447D01*
X008213Y022521D01*
X008470Y022590D01*
X008728Y022652D01*
X008988Y022707D01*
X009249Y022756D01*
X009511Y022799D01*
X009774Y022835D01*
X010038Y022865D01*
X010302Y022889D01*
X010567Y022906D01*
X010833Y022916D01*
X011098Y022920D01*
X011364Y022917D01*
X011629Y022908D01*
X011894Y022893D01*
X012159Y022870D01*
X012423Y022842D01*
X012686Y022807D01*
X012948Y022765D01*
X013209Y022717D01*
X013469Y022663D01*
X013728Y022602D01*
X013985Y022535D01*
X014240Y022462D01*
X014493Y022383D01*
X014745Y022297D01*
X014994Y022205D01*
X015241Y022107D01*
X015485Y022003D01*
X015727Y021893D01*
X015966Y021777D01*
X016202Y021656D01*
X016435Y021528D01*
X016665Y021395D01*
X016891Y021257D01*
X017114Y021112D01*
X017334Y020963D01*
X017549Y020808D01*
X017761Y020648D01*
X017969Y020483D01*
X018173Y020312D01*
X018372Y020137D01*
X018567Y019957D01*
X018758Y019772D01*
X018944Y019582D01*
X019125Y019388D01*
X019302Y019190D01*
X019474Y018987D01*
X019640Y018781D01*
X019802Y018570D01*
X019958Y018355D01*
X020109Y018137D01*
X020254Y017914D01*
X020394Y017689D01*
X020529Y017460D01*
X020658Y017228D01*
X020781Y016992D01*
X020898Y016754D01*
X021010Y016513D01*
X021115Y016269D01*
X021215Y016023D01*
X021308Y015775D01*
X021395Y015524D01*
X021476Y015271D01*
X021551Y015016D01*
X021620Y014760D01*
X021682Y014501D01*
X021738Y014242D01*
X021788Y013981D01*
X021831Y013719D01*
X021868Y013456D01*
X021898Y013192D01*
X021922Y012928D01*
X021939Y012663D01*
X021950Y012397D01*
X021954Y012132D01*
X021952Y011866D01*
X021943Y011601D01*
X021928Y011336D01*
X021906Y011071D01*
X021878Y010807D01*
X021843Y010544D01*
X021802Y010281D01*
X021754Y010020D01*
X021700Y009760D01*
X021640Y009501D01*
X021573Y009244D01*
X021501Y008989D01*
X021421Y008736D01*
X021336Y008484D01*
X021245Y008235D01*
D16*
X005459Y008275D02*
X005305Y008275D01*
X005228Y008275D02*
X005152Y008352D01*
X005190Y008352D02*
X005075Y008352D01*
X005075Y008275D02*
X005075Y008505D01*
X005190Y008505D01*
X005228Y008467D01*
X005228Y008390D01*
X005190Y008352D01*
X005305Y008428D02*
X005382Y008505D01*
X005382Y008275D01*
D17*
X003325Y013235D03*
D18*
X004641Y013235D03*
D19*
X003391Y013302D03*
X003359Y013268D03*
D20*
X004659Y013268D03*
X002959Y015368D03*
D21*
X002742Y015502D03*
X004675Y013302D03*
D22*
X003409Y013335D03*
X002841Y014335D03*
D23*
X004691Y013335D03*
D24*
X003458Y013402D03*
X003425Y013368D03*
D25*
X004709Y013368D03*
D26*
X004725Y013402D03*
X002725Y015468D03*
D27*
X004175Y013435D03*
D28*
X004191Y013468D03*
D29*
X004208Y013502D03*
X004575Y014102D03*
D30*
X004525Y014035D03*
X004225Y013535D03*
D31*
X004241Y013568D03*
D32*
X004258Y013602D03*
X004492Y014002D03*
D33*
X004275Y013635D03*
D34*
X004291Y013668D03*
D35*
X004308Y013702D03*
X004408Y013902D03*
D36*
X002325Y013735D03*
D37*
X004308Y013735D03*
D38*
X002341Y013768D03*
D39*
X004325Y013768D03*
D40*
X002009Y013802D03*
D41*
X002675Y013802D03*
X001975Y016302D03*
D42*
X004341Y013802D03*
D43*
X001875Y013835D03*
X002842Y016235D03*
D44*
X004225Y013835D03*
D45*
X002891Y013968D03*
X001791Y013868D03*
X002891Y015868D03*
X003691Y016168D03*
X003691Y016202D03*
X001759Y016202D03*
X001691Y016168D03*
D46*
X001209Y015702D03*
X001141Y015568D03*
X001109Y015502D03*
X001109Y015468D03*
X001041Y015268D03*
X001041Y015202D03*
X001041Y015168D03*
X001041Y015102D03*
X001041Y015068D03*
X001041Y015002D03*
X001041Y014968D03*
X001041Y014902D03*
X001041Y014868D03*
X001109Y014602D03*
X001209Y014402D03*
X002809Y013868D03*
X003541Y015502D03*
X003509Y015568D03*
X003509Y015602D03*
X003441Y015702D03*
X003409Y015768D03*
X003441Y015968D03*
X003541Y016068D03*
D47*
X004375Y013868D03*
D48*
X003325Y015902D03*
X002925Y016202D03*
X001725Y013902D03*
D49*
X001675Y013935D03*
D50*
X001075Y014735D03*
X001075Y015335D03*
X001175Y015635D03*
X002875Y013935D03*
X003575Y015435D03*
X003475Y015635D03*
D51*
X004441Y013935D03*
D52*
X003209Y016002D03*
X003709Y016268D03*
X003709Y016302D03*
X001541Y016068D03*
X001441Y014102D03*
X001609Y013968D03*
D53*
X004475Y013968D03*
D54*
X002875Y015902D03*
X003075Y016102D03*
X002975Y016168D03*
X001575Y016102D03*
X001575Y014002D03*
D55*
X002925Y014002D03*
D56*
X001525Y014035D03*
X001425Y014135D03*
X001325Y014235D03*
X001258Y014335D03*
X001192Y014435D03*
X001092Y015435D03*
X001125Y015535D03*
X001225Y015735D03*
X001292Y015835D03*
X001392Y015935D03*
X001492Y016035D03*
X002892Y015935D03*
X003158Y016035D03*
X003258Y015935D03*
X003358Y015835D03*
X003425Y015735D03*
X003525Y015535D03*
D57*
X002958Y015835D03*
X002925Y014035D03*
D58*
X001792Y014302D03*
X001492Y014068D03*
X001392Y014168D03*
X001358Y014202D03*
X001292Y014268D03*
X001225Y014368D03*
X001158Y014502D03*
X001125Y014568D03*
X001092Y014668D03*
X001058Y014802D03*
X001058Y015302D03*
X001158Y015602D03*
X001192Y015668D03*
X001258Y015768D03*
X001325Y015868D03*
X001358Y015902D03*
X001425Y015968D03*
X001458Y016002D03*
X003058Y015868D03*
X003225Y015968D03*
X003325Y015868D03*
X003392Y015802D03*
X003458Y015668D03*
X003558Y015468D03*
X003125Y016068D03*
D59*
X002925Y014068D03*
D60*
X004559Y014068D03*
D61*
X002941Y014102D03*
D62*
X002941Y014135D03*
D63*
X004591Y014135D03*
D64*
X002942Y014168D03*
X001942Y015402D03*
D65*
X004609Y014168D03*
X004641Y014202D03*
D66*
X002941Y014202D03*
D67*
X002925Y014235D03*
D68*
X004641Y014235D03*
D69*
X002908Y014268D03*
X002742Y015668D03*
D70*
X004658Y014268D03*
D71*
X003575Y015402D03*
X003475Y016002D03*
X003575Y016102D03*
X003075Y015902D03*
X002875Y015968D03*
X001275Y015802D03*
X001075Y015402D03*
X001075Y015368D03*
X001075Y014768D03*
X001075Y014702D03*
X001175Y014468D03*
X001275Y014302D03*
D72*
X002892Y014302D03*
X004758Y015402D03*
D73*
X004675Y014302D03*
D74*
X001791Y014335D03*
D75*
X004675Y014335D03*
D76*
X002441Y014368D03*
D77*
X004691Y014368D03*
D78*
X002425Y014402D03*
D79*
X004708Y014402D03*
D80*
X002425Y014435D03*
D81*
X004708Y014435D03*
D82*
X002409Y014468D03*
D83*
X004725Y014468D03*
X004725Y014502D03*
D84*
X004709Y014868D03*
X004709Y014902D03*
X002509Y015302D03*
X002409Y014502D03*
D85*
X001141Y014535D03*
X001109Y014635D03*
X001041Y014835D03*
X001041Y014935D03*
X001041Y015035D03*
X001041Y015135D03*
X001041Y015235D03*
X003409Y015935D03*
X003509Y016035D03*
X003609Y016135D03*
D86*
X002391Y014535D03*
D87*
X002392Y014735D03*
X002425Y015135D03*
X004725Y014535D03*
D88*
X004742Y014768D03*
X002408Y014568D03*
D89*
X002392Y014668D03*
X002392Y014702D03*
X002425Y015068D03*
X002425Y015102D03*
X004725Y014602D03*
X004725Y014568D03*
D90*
X002459Y015202D03*
X002391Y014602D03*
D91*
X002391Y014635D03*
D92*
X004741Y014635D03*
D93*
X004741Y014668D03*
X002441Y015168D03*
D94*
X004725Y014702D03*
D95*
X004725Y014735D03*
D96*
X002409Y014768D03*
X002409Y014968D03*
X002409Y015002D03*
D97*
X002391Y014902D03*
X002391Y014868D03*
X002391Y014802D03*
D98*
X004725Y014802D03*
D99*
X002391Y014835D03*
D100*
X004725Y014835D03*
D101*
X002409Y014935D03*
X002409Y015035D03*
D102*
X004692Y014935D03*
D103*
X004692Y014968D03*
D104*
X004675Y015002D03*
D105*
X004675Y015035D03*
D106*
X004642Y015068D03*
X004642Y015102D03*
D107*
X004625Y015135D03*
D108*
X004609Y015168D03*
D109*
X004592Y015202D03*
D110*
X002475Y015235D03*
D111*
X004559Y015235D03*
D112*
X002491Y015268D03*
D113*
X004542Y015268D03*
D114*
X004525Y015302D03*
D115*
X001859Y015335D03*
D116*
X002942Y015335D03*
D117*
X003709Y015335D03*
X003041Y016135D03*
X001641Y016135D03*
D118*
X004709Y015335D03*
D119*
X002725Y015702D03*
X001892Y015368D03*
D120*
X004741Y015368D03*
D121*
X002925Y015402D03*
D122*
X002109Y015435D03*
D123*
X002875Y015435D03*
D124*
X004775Y015435D03*
D125*
X004775Y015468D03*
X002875Y015802D03*
D126*
X002725Y015535D03*
D127*
X002742Y015568D03*
D128*
X002741Y015602D03*
D129*
X002741Y015635D03*
D130*
X002759Y015735D03*
D131*
X002791Y015768D03*
D132*
X003691Y016135D03*
D133*
X001825Y016235D03*
D134*
X003691Y016235D03*
D135*
X001908Y016268D03*
D136*
X002691Y016302D03*
X002759Y016268D03*
D137*
X002325Y016335D03*
D138*
X002325Y016368D03*
D139*
X010837Y007113D02*
X010792Y006668D01*
X010691Y006639D01*
X010595Y006599D01*
X010503Y006548D01*
X010157Y006831D01*
X009919Y006593D01*
X010202Y006247D01*
X010151Y006155D01*
X010111Y006059D01*
X010082Y005958D01*
X009637Y005913D01*
X009637Y005577D01*
X010082Y005532D01*
X010111Y005431D01*
X010151Y005335D01*
X010835Y005335D01*
X010840Y005347D02*
X010776Y005380D01*
X010718Y005424D01*
X010668Y005477D01*
X010628Y005537D01*
X010599Y005603D01*
X010580Y005673D01*
X010574Y005745D01*
X010582Y005825D01*
X010604Y005903D01*
X010641Y005975D01*
X010690Y006039D01*
X010751Y006093D01*
X010820Y006134D01*
X010896Y006162D01*
X010976Y006175D01*
X011056Y006173D01*
X011135Y006155D01*
X011210Y006124D01*
X011277Y006079D01*
X011334Y006022D01*
X011380Y005956D01*
X011413Y005882D01*
X011432Y005804D01*
X011435Y005723D01*
X011423Y005643D01*
X011397Y005567D01*
X011357Y005497D01*
X011304Y005435D01*
X011241Y005385D01*
X011170Y005347D01*
X011368Y004870D01*
X011439Y004903D01*
X011507Y004942D01*
X011853Y004659D01*
X012091Y004897D01*
X011808Y005243D01*
X011859Y005335D01*
X011175Y005335D01*
X011199Y005278D02*
X011828Y005278D01*
X011827Y005220D02*
X011222Y005220D01*
X011246Y005163D02*
X011874Y005163D01*
X011921Y005105D02*
X011270Y005105D01*
X011294Y005047D02*
X011968Y005047D01*
X012015Y004990D02*
X011318Y004990D01*
X011342Y004932D02*
X011491Y004932D01*
X011518Y004932D02*
X012062Y004932D01*
X012069Y004875D02*
X011589Y004875D01*
X011660Y004817D02*
X012011Y004817D01*
X011954Y004760D02*
X011730Y004760D01*
X011801Y004702D02*
X011896Y004702D01*
X011378Y004875D02*
X011365Y004875D01*
X011251Y005393D02*
X011883Y005393D01*
X011899Y005431D02*
X011928Y005532D01*
X012373Y005577D01*
X012373Y005913D01*
X011928Y005958D01*
X011899Y006059D01*
X011859Y006155D01*
X011808Y006247D01*
X012091Y006593D01*
X011853Y006831D01*
X011507Y006548D01*
X011415Y006599D01*
X011319Y006639D01*
X011218Y006668D01*
X011173Y007113D01*
X010837Y007113D01*
X010832Y007062D02*
X011178Y007062D01*
X011184Y007004D02*
X010826Y007004D01*
X010820Y006947D02*
X011190Y006947D01*
X011196Y006889D02*
X010814Y006889D01*
X010809Y006832D02*
X011201Y006832D01*
X011207Y006774D02*
X010803Y006774D01*
X010797Y006717D02*
X011213Y006717D01*
X011249Y006659D02*
X010761Y006659D01*
X010601Y006601D02*
X011409Y006601D01*
X011572Y006601D02*
X012083Y006601D01*
X012050Y006544D02*
X009960Y006544D01*
X009927Y006601D02*
X010438Y006601D01*
X010367Y006659D02*
X009985Y006659D01*
X010042Y006717D02*
X010297Y006717D01*
X010226Y006774D02*
X010100Y006774D01*
X010006Y006486D02*
X012004Y006486D01*
X011957Y006429D02*
X010053Y006429D01*
X010100Y006371D02*
X011910Y006371D01*
X011863Y006314D02*
X010147Y006314D01*
X010194Y006256D02*
X011816Y006256D01*
X011835Y006199D02*
X010175Y006199D01*
X010145Y006141D02*
X010839Y006141D01*
X010740Y006083D02*
X010121Y006083D01*
X010102Y006026D02*
X010680Y006026D01*
X010638Y005968D02*
X010085Y005968D01*
X009637Y005911D02*
X010608Y005911D01*
X010590Y005853D02*
X009637Y005853D01*
X009637Y005796D02*
X010579Y005796D01*
X010575Y005738D02*
X009637Y005738D01*
X009637Y005681D02*
X010580Y005681D01*
X010593Y005623D02*
X009637Y005623D01*
X009752Y005565D02*
X010615Y005565D01*
X010647Y005508D02*
X010089Y005508D01*
X010106Y005450D02*
X010693Y005450D01*
X010759Y005393D02*
X010127Y005393D01*
X010151Y005335D02*
X010202Y005243D01*
X009919Y004897D01*
X010157Y004659D01*
X010503Y004942D01*
X010571Y004903D01*
X010642Y004870D01*
X010840Y005347D01*
X010811Y005278D02*
X010182Y005278D01*
X010183Y005220D02*
X010788Y005220D01*
X010764Y005163D02*
X010136Y005163D01*
X010089Y005105D02*
X010740Y005105D01*
X010716Y005047D02*
X010042Y005047D01*
X009995Y004990D02*
X010692Y004990D01*
X010668Y004932D02*
X010519Y004932D01*
X010492Y004932D02*
X009948Y004932D01*
X009941Y004875D02*
X010421Y004875D01*
X010350Y004817D02*
X009999Y004817D01*
X010056Y004760D02*
X010280Y004760D01*
X010209Y004702D02*
X010114Y004702D01*
X010632Y004875D02*
X010645Y004875D01*
X011317Y005450D02*
X011904Y005450D01*
X011899Y005431D02*
X011859Y005335D01*
X011921Y005508D02*
X011363Y005508D01*
X011396Y005565D02*
X012258Y005565D01*
X012373Y005623D02*
X011416Y005623D01*
X011429Y005681D02*
X012373Y005681D01*
X012373Y005738D02*
X011434Y005738D01*
X011432Y005796D02*
X012373Y005796D01*
X012373Y005853D02*
X011420Y005853D01*
X011400Y005911D02*
X012373Y005911D01*
X011925Y005968D02*
X011372Y005968D01*
X011331Y006026D02*
X011908Y006026D01*
X011889Y006083D02*
X011270Y006083D01*
X011169Y006141D02*
X011865Y006141D01*
X012025Y006659D02*
X011643Y006659D01*
X011713Y006717D02*
X011968Y006717D01*
X011910Y006774D02*
X011784Y006774D01*
X016867Y015989D02*
X017213Y016272D01*
X017281Y016233D01*
X017352Y016200D01*
X017550Y016677D01*
X017486Y016710D01*
X017428Y016754D01*
X017378Y016807D01*
X017338Y016867D01*
X017309Y016933D01*
X017290Y017003D01*
X017284Y017075D01*
X017292Y017155D01*
X017314Y017233D01*
X017351Y017305D01*
X017400Y017369D01*
X017461Y017423D01*
X017530Y017464D01*
X017606Y017492D01*
X017686Y017505D01*
X017766Y017503D01*
X017845Y017485D01*
X017920Y017454D01*
X017987Y017409D01*
X018044Y017352D01*
X018090Y017286D01*
X018123Y017212D01*
X018142Y017134D01*
X019083Y017134D01*
X019083Y017076D02*
X018144Y017076D01*
X018145Y017053D02*
X018142Y017134D01*
X018128Y017192D02*
X019083Y017192D01*
X019083Y017243D02*
X018638Y017288D01*
X018609Y017389D01*
X018569Y017485D01*
X018518Y017577D01*
X018801Y017923D01*
X018563Y018161D01*
X018217Y017878D01*
X018125Y017929D01*
X018029Y017969D01*
X017928Y017998D01*
X017883Y018443D01*
X017547Y018443D01*
X017502Y017998D01*
X017401Y017969D01*
X017305Y017929D01*
X017213Y017878D01*
X016867Y018161D01*
X016629Y017923D01*
X016912Y017577D01*
X016861Y017485D01*
X016821Y017389D01*
X016792Y017288D01*
X016347Y017243D01*
X016347Y016907D01*
X016792Y016862D01*
X016821Y016761D01*
X016861Y016665D01*
X016912Y016573D01*
X016629Y016227D01*
X016867Y015989D01*
X016815Y016041D02*
X016930Y016041D01*
X017000Y016098D02*
X016758Y016098D01*
X016700Y016156D02*
X017071Y016156D01*
X017141Y016213D02*
X016643Y016213D01*
X016665Y016271D02*
X017212Y016271D01*
X017214Y016271D02*
X017382Y016271D01*
X017406Y016328D02*
X016712Y016328D01*
X016759Y016386D02*
X017430Y016386D01*
X017453Y016443D02*
X016806Y016443D01*
X016853Y016501D02*
X017477Y016501D01*
X017501Y016559D02*
X016900Y016559D01*
X016888Y016616D02*
X017525Y016616D01*
X017549Y016674D02*
X016857Y016674D01*
X016834Y016731D02*
X017458Y016731D01*
X017395Y016789D02*
X016813Y016789D01*
X016796Y016846D02*
X017352Y016846D01*
X017321Y016904D02*
X016379Y016904D01*
X016347Y016961D02*
X017301Y016961D01*
X017289Y017019D02*
X016347Y017019D01*
X016347Y017076D02*
X017285Y017076D01*
X017290Y017134D02*
X016347Y017134D01*
X016347Y017192D02*
X017302Y017192D01*
X017323Y017249D02*
X016409Y017249D01*
X016797Y017307D02*
X017352Y017307D01*
X017397Y017364D02*
X016814Y017364D01*
X016835Y017422D02*
X017460Y017422D01*
X017573Y017479D02*
X016859Y017479D01*
X016890Y017537D02*
X018540Y017537D01*
X018533Y017594D02*
X016897Y017594D01*
X016850Y017652D02*
X018580Y017652D01*
X018627Y017710D02*
X016803Y017710D01*
X016757Y017767D02*
X018673Y017767D01*
X018720Y017825D02*
X016710Y017825D01*
X016663Y017882D02*
X017208Y017882D01*
X017220Y017882D02*
X018210Y017882D01*
X018222Y017882D02*
X018767Y017882D01*
X018784Y017940D02*
X018292Y017940D01*
X018363Y017997D02*
X018727Y017997D01*
X018669Y018055D02*
X018433Y018055D01*
X018504Y018112D02*
X018612Y018112D01*
X018099Y017940D02*
X017331Y017940D01*
X017500Y017997D02*
X017930Y017997D01*
X017922Y018055D02*
X017508Y018055D01*
X017514Y018112D02*
X017916Y018112D01*
X017911Y018170D02*
X017519Y018170D01*
X017525Y018228D02*
X017905Y018228D01*
X017899Y018285D02*
X017531Y018285D01*
X017537Y018343D02*
X017893Y018343D01*
X017887Y018400D02*
X017543Y018400D01*
X017138Y017940D02*
X016646Y017940D01*
X016703Y017997D02*
X017067Y017997D01*
X016997Y018055D02*
X016761Y018055D01*
X016818Y018112D02*
X016926Y018112D01*
X017860Y017479D02*
X018571Y017479D01*
X018595Y017422D02*
X017968Y017422D01*
X018032Y017364D02*
X018616Y017364D01*
X018633Y017307D02*
X018076Y017307D01*
X018107Y017249D02*
X019021Y017249D01*
X019083Y017243D02*
X019083Y016907D01*
X018638Y016862D01*
X018609Y016761D01*
X018569Y016665D01*
X018518Y016573D01*
X018801Y016227D01*
X018563Y015989D01*
X018217Y016272D01*
X018149Y016233D01*
X018078Y016200D01*
X017880Y016677D01*
X017951Y016715D01*
X018014Y016765D01*
X018067Y016827D01*
X018107Y016897D01*
X018133Y016973D01*
X018145Y017053D01*
X018140Y017019D02*
X019083Y017019D01*
X019083Y016961D02*
X018129Y016961D01*
X018109Y016904D02*
X019051Y016904D01*
X018634Y016846D02*
X018078Y016846D01*
X018034Y016789D02*
X018617Y016789D01*
X018596Y016731D02*
X017971Y016731D01*
X017881Y016674D02*
X018573Y016674D01*
X018542Y016616D02*
X017905Y016616D01*
X017929Y016559D02*
X018530Y016559D01*
X018577Y016501D02*
X017953Y016501D01*
X017977Y016443D02*
X018624Y016443D01*
X018671Y016386D02*
X018000Y016386D01*
X018024Y016328D02*
X018718Y016328D01*
X018765Y016271D02*
X018218Y016271D01*
X018216Y016271D02*
X018048Y016271D01*
X018072Y016213D02*
X018106Y016213D01*
X018289Y016213D02*
X018787Y016213D01*
X018730Y016156D02*
X018359Y016156D01*
X018430Y016098D02*
X018672Y016098D01*
X018615Y016041D02*
X018500Y016041D01*
X017358Y016213D02*
X017324Y016213D01*
M02*
