G75*
%MOIN*%
%OFA0B0*%
%FSLAX24Y24*%
%IPPOS*%
%LPD*%
%AMOC8*
5,1,8,0,0,1.08239X$1,22.5*
%
%ADD10C,0.0000*%
%ADD11C,0.1246*%
%ADD12C,0.0050*%
%ADD13C,0.0080*%
%ADD14C,0.0800*%
%ADD15C,0.1300*%
%ADD16OC8,0.0740*%
%ADD17C,0.0640*%
D10*
X006445Y003425D02*
X006447Y003475D01*
X006453Y003525D01*
X006463Y003574D01*
X006477Y003622D01*
X006494Y003669D01*
X006515Y003714D01*
X006540Y003758D01*
X006568Y003799D01*
X006600Y003838D01*
X006634Y003875D01*
X006671Y003909D01*
X006711Y003939D01*
X006753Y003966D01*
X006797Y003990D01*
X006843Y004011D01*
X006890Y004027D01*
X006938Y004040D01*
X006988Y004049D01*
X007037Y004054D01*
X007088Y004055D01*
X007138Y004052D01*
X007187Y004045D01*
X007236Y004034D01*
X007284Y004019D01*
X007330Y004001D01*
X007375Y003979D01*
X007418Y003953D01*
X007459Y003924D01*
X007498Y003892D01*
X007534Y003857D01*
X007566Y003819D01*
X007596Y003779D01*
X007623Y003736D01*
X007646Y003692D01*
X007665Y003646D01*
X007681Y003598D01*
X007693Y003549D01*
X007701Y003500D01*
X007705Y003450D01*
X007705Y003400D01*
X007701Y003350D01*
X007693Y003301D01*
X007681Y003252D01*
X007665Y003204D01*
X007646Y003158D01*
X007623Y003114D01*
X007596Y003071D01*
X007566Y003031D01*
X007534Y002993D01*
X007498Y002958D01*
X007459Y002926D01*
X007418Y002897D01*
X007375Y002871D01*
X007330Y002849D01*
X007284Y002831D01*
X007236Y002816D01*
X007187Y002805D01*
X007138Y002798D01*
X007088Y002795D01*
X007037Y002796D01*
X006988Y002801D01*
X006938Y002810D01*
X006890Y002823D01*
X006843Y002839D01*
X006797Y002860D01*
X006753Y002884D01*
X006711Y002911D01*
X006671Y002941D01*
X006634Y002975D01*
X006600Y003012D01*
X006568Y003051D01*
X006540Y003092D01*
X006515Y003136D01*
X006494Y003181D01*
X006477Y003228D01*
X006463Y003276D01*
X006453Y003325D01*
X006447Y003375D01*
X006445Y003425D01*
X014445Y003425D02*
X014447Y003475D01*
X014453Y003525D01*
X014463Y003574D01*
X014477Y003622D01*
X014494Y003669D01*
X014515Y003714D01*
X014540Y003758D01*
X014568Y003799D01*
X014600Y003838D01*
X014634Y003875D01*
X014671Y003909D01*
X014711Y003939D01*
X014753Y003966D01*
X014797Y003990D01*
X014843Y004011D01*
X014890Y004027D01*
X014938Y004040D01*
X014988Y004049D01*
X015037Y004054D01*
X015088Y004055D01*
X015138Y004052D01*
X015187Y004045D01*
X015236Y004034D01*
X015284Y004019D01*
X015330Y004001D01*
X015375Y003979D01*
X015418Y003953D01*
X015459Y003924D01*
X015498Y003892D01*
X015534Y003857D01*
X015566Y003819D01*
X015596Y003779D01*
X015623Y003736D01*
X015646Y003692D01*
X015665Y003646D01*
X015681Y003598D01*
X015693Y003549D01*
X015701Y003500D01*
X015705Y003450D01*
X015705Y003400D01*
X015701Y003350D01*
X015693Y003301D01*
X015681Y003252D01*
X015665Y003204D01*
X015646Y003158D01*
X015623Y003114D01*
X015596Y003071D01*
X015566Y003031D01*
X015534Y002993D01*
X015498Y002958D01*
X015459Y002926D01*
X015418Y002897D01*
X015375Y002871D01*
X015330Y002849D01*
X015284Y002831D01*
X015236Y002816D01*
X015187Y002805D01*
X015138Y002798D01*
X015088Y002795D01*
X015037Y002796D01*
X014988Y002801D01*
X014938Y002810D01*
X014890Y002823D01*
X014843Y002839D01*
X014797Y002860D01*
X014753Y002884D01*
X014711Y002911D01*
X014671Y002941D01*
X014634Y002975D01*
X014600Y003012D01*
X014568Y003051D01*
X014540Y003092D01*
X014515Y003136D01*
X014494Y003181D01*
X014477Y003228D01*
X014463Y003276D01*
X014453Y003325D01*
X014447Y003375D01*
X014445Y003425D01*
X017052Y019255D02*
X017054Y019304D01*
X017060Y019352D01*
X017070Y019399D01*
X017083Y019446D01*
X017100Y019491D01*
X017121Y019535D01*
X017145Y019577D01*
X017173Y019617D01*
X017204Y019655D01*
X017237Y019690D01*
X017274Y019722D01*
X017312Y019751D01*
X017353Y019777D01*
X017396Y019800D01*
X017441Y019819D01*
X017487Y019834D01*
X017534Y019846D01*
X017582Y019854D01*
X017631Y019858D01*
X017679Y019858D01*
X017728Y019854D01*
X017776Y019846D01*
X017823Y019834D01*
X017869Y019819D01*
X017914Y019800D01*
X017956Y019777D01*
X017998Y019751D01*
X018036Y019722D01*
X018073Y019690D01*
X018106Y019655D01*
X018137Y019617D01*
X018165Y019577D01*
X018189Y019535D01*
X018210Y019491D01*
X018227Y019446D01*
X018240Y019399D01*
X018250Y019352D01*
X018256Y019304D01*
X018258Y019255D01*
X018256Y019206D01*
X018250Y019158D01*
X018240Y019111D01*
X018227Y019064D01*
X018210Y019019D01*
X018189Y018975D01*
X018165Y018933D01*
X018137Y018893D01*
X018106Y018855D01*
X018073Y018820D01*
X018036Y018788D01*
X017998Y018759D01*
X017957Y018733D01*
X017914Y018710D01*
X017869Y018691D01*
X017823Y018676D01*
X017776Y018664D01*
X017728Y018656D01*
X017679Y018652D01*
X017631Y018652D01*
X017582Y018656D01*
X017534Y018664D01*
X017487Y018676D01*
X017441Y018691D01*
X017396Y018710D01*
X017354Y018733D01*
X017312Y018759D01*
X017274Y018788D01*
X017237Y018820D01*
X017204Y018855D01*
X017173Y018893D01*
X017145Y018933D01*
X017121Y018975D01*
X017100Y019019D01*
X017083Y019064D01*
X017070Y019111D01*
X017060Y019158D01*
X017054Y019206D01*
X017052Y019255D01*
X014445Y020425D02*
X014447Y020475D01*
X014453Y020525D01*
X014463Y020574D01*
X014477Y020622D01*
X014494Y020669D01*
X014515Y020714D01*
X014540Y020758D01*
X014568Y020799D01*
X014600Y020838D01*
X014634Y020875D01*
X014671Y020909D01*
X014711Y020939D01*
X014753Y020966D01*
X014797Y020990D01*
X014843Y021011D01*
X014890Y021027D01*
X014938Y021040D01*
X014988Y021049D01*
X015037Y021054D01*
X015088Y021055D01*
X015138Y021052D01*
X015187Y021045D01*
X015236Y021034D01*
X015284Y021019D01*
X015330Y021001D01*
X015375Y020979D01*
X015418Y020953D01*
X015459Y020924D01*
X015498Y020892D01*
X015534Y020857D01*
X015566Y020819D01*
X015596Y020779D01*
X015623Y020736D01*
X015646Y020692D01*
X015665Y020646D01*
X015681Y020598D01*
X015693Y020549D01*
X015701Y020500D01*
X015705Y020450D01*
X015705Y020400D01*
X015701Y020350D01*
X015693Y020301D01*
X015681Y020252D01*
X015665Y020204D01*
X015646Y020158D01*
X015623Y020114D01*
X015596Y020071D01*
X015566Y020031D01*
X015534Y019993D01*
X015498Y019958D01*
X015459Y019926D01*
X015418Y019897D01*
X015375Y019871D01*
X015330Y019849D01*
X015284Y019831D01*
X015236Y019816D01*
X015187Y019805D01*
X015138Y019798D01*
X015088Y019795D01*
X015037Y019796D01*
X014988Y019801D01*
X014938Y019810D01*
X014890Y019823D01*
X014843Y019839D01*
X014797Y019860D01*
X014753Y019884D01*
X014711Y019911D01*
X014671Y019941D01*
X014634Y019975D01*
X014600Y020012D01*
X014568Y020051D01*
X014540Y020092D01*
X014515Y020136D01*
X014494Y020181D01*
X014477Y020228D01*
X014463Y020276D01*
X014453Y020325D01*
X014447Y020375D01*
X014445Y020425D01*
X006445Y020425D02*
X006447Y020475D01*
X006453Y020525D01*
X006463Y020574D01*
X006477Y020622D01*
X006494Y020669D01*
X006515Y020714D01*
X006540Y020758D01*
X006568Y020799D01*
X006600Y020838D01*
X006634Y020875D01*
X006671Y020909D01*
X006711Y020939D01*
X006753Y020966D01*
X006797Y020990D01*
X006843Y021011D01*
X006890Y021027D01*
X006938Y021040D01*
X006988Y021049D01*
X007037Y021054D01*
X007088Y021055D01*
X007138Y021052D01*
X007187Y021045D01*
X007236Y021034D01*
X007284Y021019D01*
X007330Y021001D01*
X007375Y020979D01*
X007418Y020953D01*
X007459Y020924D01*
X007498Y020892D01*
X007534Y020857D01*
X007566Y020819D01*
X007596Y020779D01*
X007623Y020736D01*
X007646Y020692D01*
X007665Y020646D01*
X007681Y020598D01*
X007693Y020549D01*
X007701Y020500D01*
X007705Y020450D01*
X007705Y020400D01*
X007701Y020350D01*
X007693Y020301D01*
X007681Y020252D01*
X007665Y020204D01*
X007646Y020158D01*
X007623Y020114D01*
X007596Y020071D01*
X007566Y020031D01*
X007534Y019993D01*
X007498Y019958D01*
X007459Y019926D01*
X007418Y019897D01*
X007375Y019871D01*
X007330Y019849D01*
X007284Y019831D01*
X007236Y019816D01*
X007187Y019805D01*
X007138Y019798D01*
X007088Y019795D01*
X007037Y019796D01*
X006988Y019801D01*
X006938Y019810D01*
X006890Y019823D01*
X006843Y019839D01*
X006797Y019860D01*
X006753Y019884D01*
X006711Y019911D01*
X006671Y019941D01*
X006634Y019975D01*
X006600Y020012D01*
X006568Y020051D01*
X006540Y020092D01*
X006515Y020136D01*
X006494Y020181D01*
X006477Y020228D01*
X006463Y020276D01*
X006453Y020325D01*
X006447Y020375D01*
X006445Y020425D01*
X004052Y019255D02*
X004054Y019304D01*
X004060Y019352D01*
X004070Y019399D01*
X004083Y019446D01*
X004100Y019491D01*
X004121Y019535D01*
X004145Y019577D01*
X004173Y019617D01*
X004204Y019655D01*
X004237Y019690D01*
X004274Y019722D01*
X004312Y019751D01*
X004353Y019777D01*
X004396Y019800D01*
X004441Y019819D01*
X004487Y019834D01*
X004534Y019846D01*
X004582Y019854D01*
X004631Y019858D01*
X004679Y019858D01*
X004728Y019854D01*
X004776Y019846D01*
X004823Y019834D01*
X004869Y019819D01*
X004914Y019800D01*
X004956Y019777D01*
X004998Y019751D01*
X005036Y019722D01*
X005073Y019690D01*
X005106Y019655D01*
X005137Y019617D01*
X005165Y019577D01*
X005189Y019535D01*
X005210Y019491D01*
X005227Y019446D01*
X005240Y019399D01*
X005250Y019352D01*
X005256Y019304D01*
X005258Y019255D01*
X005256Y019206D01*
X005250Y019158D01*
X005240Y019111D01*
X005227Y019064D01*
X005210Y019019D01*
X005189Y018975D01*
X005165Y018933D01*
X005137Y018893D01*
X005106Y018855D01*
X005073Y018820D01*
X005036Y018788D01*
X004998Y018759D01*
X004957Y018733D01*
X004914Y018710D01*
X004869Y018691D01*
X004823Y018676D01*
X004776Y018664D01*
X004728Y018656D01*
X004679Y018652D01*
X004631Y018652D01*
X004582Y018656D01*
X004534Y018664D01*
X004487Y018676D01*
X004441Y018691D01*
X004396Y018710D01*
X004354Y018733D01*
X004312Y018759D01*
X004274Y018788D01*
X004237Y018820D01*
X004204Y018855D01*
X004173Y018893D01*
X004145Y018933D01*
X004121Y018975D01*
X004100Y019019D01*
X004083Y019064D01*
X004070Y019111D01*
X004060Y019158D01*
X004054Y019206D01*
X004052Y019255D01*
D11*
X004655Y019255D03*
X017655Y019255D03*
D12*
X021255Y008205D02*
X021162Y007957D01*
X021062Y007711D01*
X020956Y007468D01*
X020844Y007228D01*
X020727Y006990D01*
X020604Y006756D01*
X020475Y006524D01*
X020340Y006296D01*
X020200Y006071D01*
X020054Y005849D01*
X019903Y005632D01*
X019747Y005417D01*
X019586Y005207D01*
X019419Y005001D01*
X019248Y004799D01*
X019071Y004601D01*
X018890Y004408D01*
X018704Y004219D01*
X018514Y004035D01*
X018319Y003855D01*
X018120Y003680D01*
X017916Y003510D01*
X017709Y003345D01*
X017497Y003186D01*
X017282Y003031D01*
X017063Y002882D01*
X016841Y002738D01*
X016614Y002600D01*
X016385Y002467D01*
X016153Y002340D01*
X015917Y002218D01*
X015679Y002103D01*
X015437Y001993D01*
X015193Y001889D01*
X014947Y001791D01*
X014698Y001700D01*
X014448Y001614D01*
X014195Y001534D01*
X013940Y001461D01*
X013684Y001394D01*
X013426Y001333D01*
X013166Y001279D01*
X012906Y001231D01*
X012644Y001189D01*
X012381Y001154D01*
X012118Y001125D01*
X011854Y001102D01*
X011589Y001086D01*
X011325Y001077D01*
X011060Y001074D01*
X010795Y001077D01*
X010530Y001087D01*
X010265Y001104D01*
X010001Y001127D01*
X009738Y001156D01*
X009475Y001192D01*
X009214Y001234D01*
X008953Y001283D01*
X008694Y001337D01*
X008436Y001399D01*
X008180Y001466D01*
X007925Y001540D01*
X007672Y001620D01*
X007422Y001706D01*
X007173Y001798D01*
X006927Y001896D01*
X006683Y002001D01*
X006442Y002111D01*
X006204Y002227D01*
X005969Y002349D01*
X005736Y002476D01*
X005507Y002609D01*
X005282Y002748D01*
X005059Y002892D01*
X004840Y003042D01*
X004625Y003197D01*
X004414Y003357D01*
X004207Y003522D01*
X004004Y003692D01*
X003805Y003868D01*
X003610Y004048D01*
X003420Y004232D01*
X003235Y004421D01*
X003054Y004615D01*
X002878Y004813D01*
X002707Y005016D01*
X002541Y005222D01*
X002380Y005433D01*
X002224Y005647D01*
X002073Y005865D01*
X001928Y006087D01*
X001788Y006312D01*
X001654Y006540D01*
X001525Y006772D01*
X001403Y007007D01*
X001286Y007245D01*
X001174Y007485D01*
X001069Y007728D01*
X000970Y007974D01*
X000876Y008222D01*
X000789Y008472D01*
X000708Y008725D01*
X000633Y008979D01*
X000564Y009235D01*
X000502Y009493D01*
X000446Y009752D01*
X000396Y010012D01*
X000353Y010273D01*
X000316Y010536D01*
X000286Y010799D01*
X000262Y011063D01*
X000244Y011327D01*
X000233Y011592D01*
X000228Y011857D01*
X000230Y012122D01*
X000238Y012387D01*
X000253Y012652D01*
X000274Y012916D01*
X000302Y013179D01*
X000336Y013442D01*
X000377Y013704D01*
X000424Y013965D01*
X000477Y014225D01*
X000537Y014483D01*
X000602Y014740D01*
X000675Y014995D01*
X000753Y015248D01*
X000838Y015499D01*
X000928Y015748D01*
X001025Y015995D01*
D13*
X001015Y015975D02*
X001113Y016221D01*
X001217Y016466D01*
X001328Y016707D01*
X001444Y016946D01*
X001566Y017182D01*
X001693Y017415D01*
X001827Y017644D01*
X001966Y017871D01*
X002110Y018093D01*
X002260Y018313D01*
X002415Y018528D01*
X002576Y018740D01*
X002741Y018947D01*
X002912Y019151D01*
X003088Y019350D01*
X003268Y019545D01*
X003453Y019735D01*
X003643Y019921D01*
X003837Y020102D01*
X004036Y020278D01*
X004239Y020450D01*
X004446Y020616D01*
X004657Y020777D01*
X004872Y020933D01*
X005091Y021084D01*
X005313Y021229D01*
X005539Y021369D01*
X005768Y021503D01*
X006000Y021631D01*
X006236Y021754D01*
X006474Y021871D01*
X006715Y021982D01*
X006959Y022087D01*
X007206Y022186D01*
X007454Y022279D01*
X007705Y022366D01*
X007958Y022447D01*
X008213Y022521D01*
X008470Y022590D01*
X008728Y022652D01*
X008988Y022707D01*
X009249Y022756D01*
X009511Y022799D01*
X009774Y022835D01*
X010038Y022865D01*
X010302Y022889D01*
X010567Y022906D01*
X010833Y022916D01*
X011098Y022920D01*
X011364Y022917D01*
X011629Y022908D01*
X011894Y022893D01*
X012159Y022870D01*
X012423Y022842D01*
X012686Y022807D01*
X012948Y022765D01*
X013209Y022717D01*
X013469Y022663D01*
X013728Y022602D01*
X013985Y022535D01*
X014240Y022462D01*
X014493Y022383D01*
X014745Y022297D01*
X014994Y022205D01*
X015241Y022107D01*
X015485Y022003D01*
X015727Y021893D01*
X015966Y021777D01*
X016202Y021656D01*
X016435Y021528D01*
X016665Y021395D01*
X016891Y021257D01*
X017114Y021112D01*
X017334Y020963D01*
X017549Y020808D01*
X017761Y020648D01*
X017969Y020483D01*
X018173Y020312D01*
X018372Y020137D01*
X018567Y019957D01*
X018758Y019772D01*
X018944Y019582D01*
X019125Y019388D01*
X019302Y019190D01*
X019474Y018987D01*
X019640Y018781D01*
X019802Y018570D01*
X019958Y018355D01*
X020109Y018137D01*
X020254Y017914D01*
X020394Y017689D01*
X020529Y017460D01*
X020658Y017228D01*
X020781Y016992D01*
X020898Y016754D01*
X021010Y016513D01*
X021115Y016269D01*
X021215Y016023D01*
X021308Y015775D01*
X021395Y015524D01*
X021476Y015271D01*
X021551Y015016D01*
X021620Y014760D01*
X021682Y014501D01*
X021738Y014242D01*
X021788Y013981D01*
X021831Y013719D01*
X021868Y013456D01*
X021898Y013192D01*
X021922Y012928D01*
X021939Y012663D01*
X021950Y012397D01*
X021954Y012132D01*
X021952Y011866D01*
X021943Y011601D01*
X021928Y011336D01*
X021906Y011071D01*
X021878Y010807D01*
X021843Y010544D01*
X021802Y010281D01*
X021754Y010020D01*
X021700Y009760D01*
X021640Y009501D01*
X021573Y009244D01*
X021501Y008989D01*
X021421Y008736D01*
X021336Y008484D01*
X021245Y008235D01*
D14*
X006575Y004925D03*
X006575Y005925D03*
X006575Y006925D03*
X006575Y007925D03*
X006575Y008925D03*
X006575Y009925D03*
X006575Y010925D03*
X006575Y011925D03*
X006575Y012925D03*
X006575Y013925D03*
X006575Y014925D03*
X006575Y015925D03*
X006575Y016925D03*
X006575Y017925D03*
X006575Y018925D03*
X015575Y018925D03*
X015575Y017925D03*
X015575Y016925D03*
X015575Y015925D03*
X015575Y014925D03*
X015575Y013925D03*
X015575Y012925D03*
X015575Y011925D03*
X015575Y010925D03*
X015575Y009925D03*
X015575Y008925D03*
X015575Y007925D03*
X015575Y006925D03*
X015575Y005925D03*
X015575Y004925D03*
D15*
X015075Y003425D03*
X007075Y003425D03*
X007075Y020425D03*
X015075Y020425D03*
D16*
X019975Y015605D03*
X019875Y014605D03*
X019975Y013605D03*
X019875Y012605D03*
X019975Y011605D03*
X019875Y010605D03*
X019975Y009605D03*
X019875Y008605D03*
D17*
X001125Y010775D03*
X001125Y011775D03*
X001125Y012775D03*
M02*
