G75*
%MOIN*%
%OFA0B0*%
%FSLAX24Y24*%
%IPPOS*%
%LPD*%
%AMOC8*
5,1,8,0,0,1.08239X$1,22.5*
%
%ADD10C,0.0000*%
%ADD11C,0.0050*%
%ADD12C,0.0060*%
%ADD13C,0.0080*%
%ADD14C,0.0040*%
%ADD15R,0.0033X0.1967*%
%ADD16R,0.0033X0.2266*%
%ADD17R,0.0033X0.1967*%
%ADD18R,0.0033X0.2300*%
%ADD19R,0.0033X0.2034*%
%ADD20R,0.0033X0.2333*%
%ADD21R,0.0033X0.2033*%
%ADD22R,0.0033X0.2366*%
%ADD23R,0.0033X0.2066*%
%ADD24R,0.0033X0.2400*%
%ADD25R,0.0033X0.2100*%
%ADD26R,0.0033X0.2433*%
%ADD27R,0.0033X0.2133*%
%ADD28R,0.0033X0.2466*%
%ADD29R,0.0033X0.2167*%
%ADD30R,0.0033X0.2500*%
%ADD31R,0.0033X0.2200*%
%ADD32R,0.0033X0.2566*%
%ADD33R,0.0033X0.2200*%
%ADD34R,0.0033X0.2600*%
%ADD35R,0.0033X0.2234*%
%ADD36R,0.0033X0.2633*%
%ADD37R,0.0033X0.2700*%
%ADD38R,0.0033X0.5067*%
%ADD39R,0.0033X0.5100*%
%ADD40R,0.0033X0.5133*%
%ADD41R,0.0033X0.5166*%
%ADD42R,0.0033X0.5200*%
%ADD43R,0.0033X0.5233*%
%ADD44R,0.0033X0.5266*%
%ADD45R,0.0033X0.5300*%
%ADD46R,0.0033X0.5333*%
%ADD47R,0.0033X0.5366*%
%ADD48R,0.0033X0.5400*%
%ADD49R,0.0033X0.5433*%
%ADD50R,0.0033X0.5466*%
%ADD51R,0.0033X0.5500*%
%ADD52R,0.0033X0.5533*%
%ADD53R,0.0033X0.5566*%
%ADD54R,0.0033X0.5600*%
%ADD55R,0.0033X0.0866*%
%ADD56R,0.0033X0.5600*%
%ADD57R,0.0033X0.1200*%
%ADD58R,0.0033X0.5667*%
%ADD59R,0.0033X0.1466*%
%ADD60R,0.0033X0.5700*%
%ADD61R,0.0033X0.1700*%
%ADD62R,0.0033X0.5700*%
%ADD63R,0.0033X0.0533*%
%ADD64R,0.0033X0.5734*%
%ADD65R,0.0033X0.0466*%
%ADD66R,0.0033X0.5767*%
%ADD67R,0.0033X0.0400*%
%ADD68R,0.0033X0.6200*%
%ADD69R,0.0033X0.0367*%
%ADD70R,0.0033X0.0267*%
%ADD71R,0.0033X0.5733*%
%ADD72R,0.0033X0.0333*%
%ADD73R,0.0033X0.0166*%
%ADD74R,0.0033X0.0333*%
%ADD75R,0.0033X0.0066*%
%ADD76R,0.0033X0.5633*%
%ADD77R,0.0033X0.0300*%
%ADD78R,0.0033X0.0067*%
%ADD79R,0.0033X0.5567*%
%ADD80R,0.0033X0.0267*%
%ADD81R,0.0033X0.0167*%
%ADD82R,0.0033X0.5500*%
%ADD83R,0.0033X0.0233*%
%ADD84R,0.0033X0.0233*%
%ADD85R,0.0033X0.0366*%
%ADD86R,0.0033X0.5433*%
%ADD87R,0.0033X0.0467*%
%ADD88R,0.0033X0.0600*%
%ADD89R,0.0033X0.5300*%
%ADD90R,0.0033X0.0234*%
%ADD91R,0.0033X0.0666*%
%ADD92R,0.0033X0.0200*%
%ADD93R,0.0033X0.0734*%
%ADD94R,0.0033X0.5267*%
%ADD95R,0.0033X0.0200*%
%ADD96R,0.0033X0.0800*%
%ADD97R,0.0033X0.5234*%
%ADD98R,0.0033X0.0900*%
%ADD99R,0.0033X0.0967*%
%ADD100R,0.0033X0.1033*%
%ADD101R,0.0033X0.5167*%
%ADD102R,0.0033X0.1100*%
%ADD103R,0.0033X0.1167*%
%ADD104R,0.0033X0.1233*%
%ADD105R,0.0033X0.1300*%
%ADD106R,0.0033X0.5066*%
%ADD107R,0.0033X0.1400*%
%ADD108R,0.0033X0.1433*%
%ADD109R,0.0033X0.5033*%
%ADD110R,0.0033X0.1533*%
%ADD111R,0.0033X0.5000*%
%ADD112R,0.0033X0.1634*%
%ADD113R,0.0033X0.4966*%
%ADD114R,0.0033X0.1733*%
%ADD115R,0.0033X0.4966*%
%ADD116R,0.0033X0.0167*%
%ADD117R,0.0033X0.1833*%
%ADD118R,0.0033X0.4933*%
%ADD119R,0.0033X0.0600*%
%ADD120R,0.0033X0.1933*%
%ADD121R,0.0033X0.4900*%
%ADD122R,0.0033X0.0833*%
%ADD123R,0.0033X0.2100*%
%ADD124R,0.0033X0.4900*%
%ADD125R,0.0033X0.2367*%
%ADD126R,0.0033X0.4866*%
%ADD127R,0.0033X0.3767*%
%ADD128R,0.0033X0.4833*%
%ADD129R,0.0033X0.3833*%
%ADD130R,0.0033X0.4833*%
%ADD131R,0.0033X0.3934*%
%ADD132R,0.0033X0.4800*%
%ADD133R,0.0033X0.3967*%
%ADD134R,0.0033X0.4033*%
%ADD135R,0.0033X0.4766*%
%ADD136R,0.0033X0.4067*%
%ADD137R,0.0033X0.4766*%
%ADD138R,0.0033X0.4133*%
%ADD139R,0.0033X0.4733*%
%ADD140R,0.0033X0.0166*%
%ADD141R,0.0033X0.4166*%
%ADD142R,0.0033X0.4733*%
%ADD143R,0.0033X0.4234*%
%ADD144R,0.0033X0.4700*%
%ADD145R,0.0033X0.4267*%
%ADD146R,0.0033X0.4667*%
%ADD147R,0.0033X0.4333*%
%ADD148R,0.0033X0.4633*%
%ADD149R,0.0033X0.0134*%
%ADD150R,0.0033X0.4333*%
%ADD151R,0.0033X0.4633*%
%ADD152R,0.0033X0.4400*%
%ADD153R,0.0033X0.4433*%
%ADD154R,0.0033X0.4600*%
%ADD155R,0.0033X0.0133*%
%ADD156R,0.0033X0.4433*%
%ADD157R,0.0033X0.4600*%
%ADD158R,0.0033X0.4500*%
%ADD159R,0.0033X0.4567*%
%ADD160R,0.0033X0.0133*%
%ADD161R,0.0033X0.4500*%
%ADD162R,0.0033X0.4534*%
%ADD163R,0.0033X0.4533*%
%ADD164R,0.0033X0.4534*%
%ADD165R,0.0033X0.0134*%
%ADD166R,0.0033X0.4567*%
%ADD167R,0.0033X0.4466*%
%ADD168R,0.0033X0.4466*%
%ADD169R,0.0033X0.4667*%
%ADD170R,0.0033X0.4367*%
%ADD171R,0.0033X0.4367*%
%ADD172R,0.0033X0.4700*%
%ADD173R,0.0033X0.4300*%
%ADD174R,0.0033X0.4234*%
%ADD175R,0.0033X0.4200*%
%ADD176R,0.0033X0.4200*%
%ADD177R,0.0033X0.4167*%
%ADD178R,0.0033X0.4134*%
%ADD179R,0.0033X0.4100*%
%ADD180R,0.0033X0.4033*%
%ADD181R,0.0033X0.4034*%
%ADD182R,0.0033X0.4000*%
%ADD183R,0.0033X0.3967*%
%ADD184R,0.0033X0.3900*%
%ADD185R,0.0033X0.3867*%
%ADD186R,0.0033X0.3834*%
%ADD187R,0.0033X0.4533*%
%ADD188R,0.0033X0.3800*%
%ADD189R,0.0033X0.4467*%
%ADD190R,0.0033X0.3734*%
%ADD191R,0.0033X0.3667*%
%ADD192R,0.0033X0.3634*%
%ADD193R,0.0033X0.4334*%
%ADD194R,0.0033X0.3633*%
%ADD195R,0.0033X0.3567*%
%ADD196R,0.0033X0.3533*%
%ADD197R,0.0033X0.1600*%
%ADD198R,0.0033X0.2467*%
%ADD199R,0.0033X0.3467*%
%ADD200R,0.0033X0.1500*%
%ADD201R,0.0033X0.2400*%
%ADD202R,0.0033X0.2566*%
%ADD203R,0.0033X0.1467*%
%ADD204R,0.0033X0.2366*%
%ADD205R,0.0033X0.2133*%
%ADD206R,0.0033X0.1300*%
%ADD207R,0.0033X0.2467*%
%ADD208R,0.0033X0.1966*%
%ADD209R,0.0033X0.2334*%
%ADD210R,0.0033X0.1800*%
%ADD211R,0.0033X0.1033*%
%ADD212R,0.0033X0.2267*%
%ADD213R,0.0033X0.0634*%
%ADD214R,0.0033X0.1467*%
%ADD215R,0.0033X0.2800*%
%ADD216R,0.0033X0.0933*%
%ADD217R,0.0033X0.2534*%
%ADD218R,0.0033X0.0500*%
%ADD219R,0.0033X0.2134*%
%ADD220R,0.0033X0.2033*%
%ADD221R,0.0033X0.1934*%
%ADD222R,0.0033X0.1866*%
%ADD223R,0.0033X0.1734*%
%ADD224R,0.0033X0.1666*%
%ADD225R,0.0033X0.1267*%
%ADD226R,0.0033X0.1133*%
%ADD227R,0.0033X0.1066*%
%ADD228R,0.0033X0.0566*%
%ADD229R,0.0033X0.0300*%
%ADD230R,0.0033X0.0266*%
%ADD231R,0.0033X0.0266*%
%ADD232R,0.0033X0.0334*%
%ADD233R,0.0033X0.0234*%
%ADD234R,0.0033X0.0067*%
%ADD235R,0.0033X0.0367*%
%ADD236R,0.0033X0.0400*%
%ADD237R,0.0033X0.0434*%
%ADD238R,0.0033X0.0533*%
%ADD239R,0.0033X0.0633*%
%ADD240R,0.0033X0.0634*%
%ADD241R,0.0033X0.1567*%
%ADD242R,0.0033X0.1334*%
%ADD243R,0.0033X0.0567*%
D10*
X006445Y003425D02*
X006447Y003475D01*
X006453Y003525D01*
X006463Y003574D01*
X006477Y003622D01*
X006494Y003669D01*
X006515Y003714D01*
X006540Y003758D01*
X006568Y003799D01*
X006600Y003838D01*
X006634Y003875D01*
X006671Y003909D01*
X006711Y003939D01*
X006753Y003966D01*
X006797Y003990D01*
X006843Y004011D01*
X006890Y004027D01*
X006938Y004040D01*
X006988Y004049D01*
X007037Y004054D01*
X007088Y004055D01*
X007138Y004052D01*
X007187Y004045D01*
X007236Y004034D01*
X007284Y004019D01*
X007330Y004001D01*
X007375Y003979D01*
X007418Y003953D01*
X007459Y003924D01*
X007498Y003892D01*
X007534Y003857D01*
X007566Y003819D01*
X007596Y003779D01*
X007623Y003736D01*
X007646Y003692D01*
X007665Y003646D01*
X007681Y003598D01*
X007693Y003549D01*
X007701Y003500D01*
X007705Y003450D01*
X007705Y003400D01*
X007701Y003350D01*
X007693Y003301D01*
X007681Y003252D01*
X007665Y003204D01*
X007646Y003158D01*
X007623Y003114D01*
X007596Y003071D01*
X007566Y003031D01*
X007534Y002993D01*
X007498Y002958D01*
X007459Y002926D01*
X007418Y002897D01*
X007375Y002871D01*
X007330Y002849D01*
X007284Y002831D01*
X007236Y002816D01*
X007187Y002805D01*
X007138Y002798D01*
X007088Y002795D01*
X007037Y002796D01*
X006988Y002801D01*
X006938Y002810D01*
X006890Y002823D01*
X006843Y002839D01*
X006797Y002860D01*
X006753Y002884D01*
X006711Y002911D01*
X006671Y002941D01*
X006634Y002975D01*
X006600Y003012D01*
X006568Y003051D01*
X006540Y003092D01*
X006515Y003136D01*
X006494Y003181D01*
X006477Y003228D01*
X006463Y003276D01*
X006453Y003325D01*
X006447Y003375D01*
X006445Y003425D01*
X014445Y003425D02*
X014447Y003475D01*
X014453Y003525D01*
X014463Y003574D01*
X014477Y003622D01*
X014494Y003669D01*
X014515Y003714D01*
X014540Y003758D01*
X014568Y003799D01*
X014600Y003838D01*
X014634Y003875D01*
X014671Y003909D01*
X014711Y003939D01*
X014753Y003966D01*
X014797Y003990D01*
X014843Y004011D01*
X014890Y004027D01*
X014938Y004040D01*
X014988Y004049D01*
X015037Y004054D01*
X015088Y004055D01*
X015138Y004052D01*
X015187Y004045D01*
X015236Y004034D01*
X015284Y004019D01*
X015330Y004001D01*
X015375Y003979D01*
X015418Y003953D01*
X015459Y003924D01*
X015498Y003892D01*
X015534Y003857D01*
X015566Y003819D01*
X015596Y003779D01*
X015623Y003736D01*
X015646Y003692D01*
X015665Y003646D01*
X015681Y003598D01*
X015693Y003549D01*
X015701Y003500D01*
X015705Y003450D01*
X015705Y003400D01*
X015701Y003350D01*
X015693Y003301D01*
X015681Y003252D01*
X015665Y003204D01*
X015646Y003158D01*
X015623Y003114D01*
X015596Y003071D01*
X015566Y003031D01*
X015534Y002993D01*
X015498Y002958D01*
X015459Y002926D01*
X015418Y002897D01*
X015375Y002871D01*
X015330Y002849D01*
X015284Y002831D01*
X015236Y002816D01*
X015187Y002805D01*
X015138Y002798D01*
X015088Y002795D01*
X015037Y002796D01*
X014988Y002801D01*
X014938Y002810D01*
X014890Y002823D01*
X014843Y002839D01*
X014797Y002860D01*
X014753Y002884D01*
X014711Y002911D01*
X014671Y002941D01*
X014634Y002975D01*
X014600Y003012D01*
X014568Y003051D01*
X014540Y003092D01*
X014515Y003136D01*
X014494Y003181D01*
X014477Y003228D01*
X014463Y003276D01*
X014453Y003325D01*
X014447Y003375D01*
X014445Y003425D01*
X017052Y019255D02*
X017054Y019304D01*
X017060Y019352D01*
X017070Y019399D01*
X017083Y019446D01*
X017100Y019491D01*
X017121Y019535D01*
X017145Y019577D01*
X017173Y019617D01*
X017204Y019655D01*
X017237Y019690D01*
X017274Y019722D01*
X017312Y019751D01*
X017353Y019777D01*
X017396Y019800D01*
X017441Y019819D01*
X017487Y019834D01*
X017534Y019846D01*
X017582Y019854D01*
X017631Y019858D01*
X017679Y019858D01*
X017728Y019854D01*
X017776Y019846D01*
X017823Y019834D01*
X017869Y019819D01*
X017914Y019800D01*
X017956Y019777D01*
X017998Y019751D01*
X018036Y019722D01*
X018073Y019690D01*
X018106Y019655D01*
X018137Y019617D01*
X018165Y019577D01*
X018189Y019535D01*
X018210Y019491D01*
X018227Y019446D01*
X018240Y019399D01*
X018250Y019352D01*
X018256Y019304D01*
X018258Y019255D01*
X018256Y019206D01*
X018250Y019158D01*
X018240Y019111D01*
X018227Y019064D01*
X018210Y019019D01*
X018189Y018975D01*
X018165Y018933D01*
X018137Y018893D01*
X018106Y018855D01*
X018073Y018820D01*
X018036Y018788D01*
X017998Y018759D01*
X017957Y018733D01*
X017914Y018710D01*
X017869Y018691D01*
X017823Y018676D01*
X017776Y018664D01*
X017728Y018656D01*
X017679Y018652D01*
X017631Y018652D01*
X017582Y018656D01*
X017534Y018664D01*
X017487Y018676D01*
X017441Y018691D01*
X017396Y018710D01*
X017354Y018733D01*
X017312Y018759D01*
X017274Y018788D01*
X017237Y018820D01*
X017204Y018855D01*
X017173Y018893D01*
X017145Y018933D01*
X017121Y018975D01*
X017100Y019019D01*
X017083Y019064D01*
X017070Y019111D01*
X017060Y019158D01*
X017054Y019206D01*
X017052Y019255D01*
X014445Y020425D02*
X014447Y020475D01*
X014453Y020525D01*
X014463Y020574D01*
X014477Y020622D01*
X014494Y020669D01*
X014515Y020714D01*
X014540Y020758D01*
X014568Y020799D01*
X014600Y020838D01*
X014634Y020875D01*
X014671Y020909D01*
X014711Y020939D01*
X014753Y020966D01*
X014797Y020990D01*
X014843Y021011D01*
X014890Y021027D01*
X014938Y021040D01*
X014988Y021049D01*
X015037Y021054D01*
X015088Y021055D01*
X015138Y021052D01*
X015187Y021045D01*
X015236Y021034D01*
X015284Y021019D01*
X015330Y021001D01*
X015375Y020979D01*
X015418Y020953D01*
X015459Y020924D01*
X015498Y020892D01*
X015534Y020857D01*
X015566Y020819D01*
X015596Y020779D01*
X015623Y020736D01*
X015646Y020692D01*
X015665Y020646D01*
X015681Y020598D01*
X015693Y020549D01*
X015701Y020500D01*
X015705Y020450D01*
X015705Y020400D01*
X015701Y020350D01*
X015693Y020301D01*
X015681Y020252D01*
X015665Y020204D01*
X015646Y020158D01*
X015623Y020114D01*
X015596Y020071D01*
X015566Y020031D01*
X015534Y019993D01*
X015498Y019958D01*
X015459Y019926D01*
X015418Y019897D01*
X015375Y019871D01*
X015330Y019849D01*
X015284Y019831D01*
X015236Y019816D01*
X015187Y019805D01*
X015138Y019798D01*
X015088Y019795D01*
X015037Y019796D01*
X014988Y019801D01*
X014938Y019810D01*
X014890Y019823D01*
X014843Y019839D01*
X014797Y019860D01*
X014753Y019884D01*
X014711Y019911D01*
X014671Y019941D01*
X014634Y019975D01*
X014600Y020012D01*
X014568Y020051D01*
X014540Y020092D01*
X014515Y020136D01*
X014494Y020181D01*
X014477Y020228D01*
X014463Y020276D01*
X014453Y020325D01*
X014447Y020375D01*
X014445Y020425D01*
X006445Y020425D02*
X006447Y020475D01*
X006453Y020525D01*
X006463Y020574D01*
X006477Y020622D01*
X006494Y020669D01*
X006515Y020714D01*
X006540Y020758D01*
X006568Y020799D01*
X006600Y020838D01*
X006634Y020875D01*
X006671Y020909D01*
X006711Y020939D01*
X006753Y020966D01*
X006797Y020990D01*
X006843Y021011D01*
X006890Y021027D01*
X006938Y021040D01*
X006988Y021049D01*
X007037Y021054D01*
X007088Y021055D01*
X007138Y021052D01*
X007187Y021045D01*
X007236Y021034D01*
X007284Y021019D01*
X007330Y021001D01*
X007375Y020979D01*
X007418Y020953D01*
X007459Y020924D01*
X007498Y020892D01*
X007534Y020857D01*
X007566Y020819D01*
X007596Y020779D01*
X007623Y020736D01*
X007646Y020692D01*
X007665Y020646D01*
X007681Y020598D01*
X007693Y020549D01*
X007701Y020500D01*
X007705Y020450D01*
X007705Y020400D01*
X007701Y020350D01*
X007693Y020301D01*
X007681Y020252D01*
X007665Y020204D01*
X007646Y020158D01*
X007623Y020114D01*
X007596Y020071D01*
X007566Y020031D01*
X007534Y019993D01*
X007498Y019958D01*
X007459Y019926D01*
X007418Y019897D01*
X007375Y019871D01*
X007330Y019849D01*
X007284Y019831D01*
X007236Y019816D01*
X007187Y019805D01*
X007138Y019798D01*
X007088Y019795D01*
X007037Y019796D01*
X006988Y019801D01*
X006938Y019810D01*
X006890Y019823D01*
X006843Y019839D01*
X006797Y019860D01*
X006753Y019884D01*
X006711Y019911D01*
X006671Y019941D01*
X006634Y019975D01*
X006600Y020012D01*
X006568Y020051D01*
X006540Y020092D01*
X006515Y020136D01*
X006494Y020181D01*
X006477Y020228D01*
X006463Y020276D01*
X006453Y020325D01*
X006447Y020375D01*
X006445Y020425D01*
X004052Y019255D02*
X004054Y019304D01*
X004060Y019352D01*
X004070Y019399D01*
X004083Y019446D01*
X004100Y019491D01*
X004121Y019535D01*
X004145Y019577D01*
X004173Y019617D01*
X004204Y019655D01*
X004237Y019690D01*
X004274Y019722D01*
X004312Y019751D01*
X004353Y019777D01*
X004396Y019800D01*
X004441Y019819D01*
X004487Y019834D01*
X004534Y019846D01*
X004582Y019854D01*
X004631Y019858D01*
X004679Y019858D01*
X004728Y019854D01*
X004776Y019846D01*
X004823Y019834D01*
X004869Y019819D01*
X004914Y019800D01*
X004956Y019777D01*
X004998Y019751D01*
X005036Y019722D01*
X005073Y019690D01*
X005106Y019655D01*
X005137Y019617D01*
X005165Y019577D01*
X005189Y019535D01*
X005210Y019491D01*
X005227Y019446D01*
X005240Y019399D01*
X005250Y019352D01*
X005256Y019304D01*
X005258Y019255D01*
X005256Y019206D01*
X005250Y019158D01*
X005240Y019111D01*
X005227Y019064D01*
X005210Y019019D01*
X005189Y018975D01*
X005165Y018933D01*
X005137Y018893D01*
X005106Y018855D01*
X005073Y018820D01*
X005036Y018788D01*
X004998Y018759D01*
X004957Y018733D01*
X004914Y018710D01*
X004869Y018691D01*
X004823Y018676D01*
X004776Y018664D01*
X004728Y018656D01*
X004679Y018652D01*
X004631Y018652D01*
X004582Y018656D01*
X004534Y018664D01*
X004487Y018676D01*
X004441Y018691D01*
X004396Y018710D01*
X004354Y018733D01*
X004312Y018759D01*
X004274Y018788D01*
X004237Y018820D01*
X004204Y018855D01*
X004173Y018893D01*
X004145Y018933D01*
X004121Y018975D01*
X004100Y019019D01*
X004083Y019064D01*
X004070Y019111D01*
X004060Y019158D01*
X004054Y019206D01*
X004052Y019255D01*
D11*
X001025Y015995D02*
X000928Y015748D01*
X000838Y015499D01*
X000753Y015248D01*
X000675Y014995D01*
X000602Y014740D01*
X000537Y014483D01*
X000477Y014225D01*
X000424Y013965D01*
X000377Y013704D01*
X000336Y013442D01*
X000302Y013179D01*
X000274Y012916D01*
X000253Y012652D01*
X000238Y012387D01*
X000230Y012122D01*
X000228Y011857D01*
X000233Y011592D01*
X000244Y011327D01*
X000262Y011063D01*
X000286Y010799D01*
X000316Y010536D01*
X000353Y010273D01*
X000396Y010012D01*
X000446Y009752D01*
X000502Y009493D01*
X000564Y009235D01*
X000633Y008979D01*
X000708Y008725D01*
X000789Y008472D01*
X000876Y008222D01*
X000970Y007974D01*
X001069Y007728D01*
X001174Y007485D01*
X001286Y007245D01*
X001403Y007007D01*
X001525Y006772D01*
X001654Y006540D01*
X001788Y006312D01*
X001928Y006087D01*
X002073Y005865D01*
X002224Y005647D01*
X002380Y005433D01*
X002541Y005222D01*
X002707Y005016D01*
X002878Y004813D01*
X003054Y004615D01*
X003235Y004421D01*
X003420Y004232D01*
X003610Y004048D01*
X003805Y003868D01*
X004004Y003692D01*
X004207Y003522D01*
X004414Y003357D01*
X004625Y003197D01*
X004840Y003042D01*
X005059Y002892D01*
X005282Y002748D01*
X005507Y002609D01*
X005736Y002476D01*
X005969Y002349D01*
X006204Y002227D01*
X006442Y002111D01*
X006683Y002001D01*
X006927Y001896D01*
X007173Y001798D01*
X007422Y001706D01*
X007672Y001620D01*
X007925Y001540D01*
X008180Y001466D01*
X008436Y001399D01*
X008694Y001337D01*
X008953Y001283D01*
X009214Y001234D01*
X009475Y001192D01*
X009738Y001156D01*
X010001Y001127D01*
X010265Y001104D01*
X010530Y001087D01*
X010795Y001077D01*
X011060Y001074D01*
X011325Y001077D01*
X011589Y001086D01*
X011854Y001102D01*
X012118Y001125D01*
X012381Y001154D01*
X012644Y001189D01*
X012906Y001231D01*
X013166Y001279D01*
X013426Y001333D01*
X013684Y001394D01*
X013940Y001461D01*
X014195Y001534D01*
X014448Y001614D01*
X014698Y001700D01*
X014947Y001791D01*
X015193Y001889D01*
X015437Y001993D01*
X015679Y002103D01*
X015917Y002218D01*
X016153Y002340D01*
X016385Y002467D01*
X016614Y002600D01*
X016841Y002738D01*
X017063Y002882D01*
X017282Y003031D01*
X017497Y003186D01*
X017709Y003345D01*
X017916Y003510D01*
X018120Y003680D01*
X018319Y003855D01*
X018514Y004035D01*
X018704Y004219D01*
X018890Y004408D01*
X019071Y004601D01*
X019248Y004799D01*
X019419Y005001D01*
X019586Y005207D01*
X019747Y005417D01*
X019903Y005632D01*
X020054Y005849D01*
X020200Y006071D01*
X020340Y006296D01*
X020475Y006524D01*
X020604Y006756D01*
X020727Y006990D01*
X020844Y007228D01*
X020956Y007468D01*
X021062Y007711D01*
X021162Y007957D01*
X021255Y008205D01*
D12*
X002798Y006452D02*
X002674Y006575D01*
X002674Y006822D01*
X002798Y006945D01*
X002921Y006945D01*
X003045Y006822D01*
X003045Y006575D01*
X003168Y006452D01*
X003292Y006452D01*
X003415Y006575D01*
X003415Y006822D01*
X003292Y006945D01*
X003415Y007188D02*
X003415Y007682D01*
X002674Y007682D01*
X002674Y007188D01*
X003045Y007435D02*
X003045Y007682D01*
X003415Y007925D02*
X003415Y008419D01*
X002674Y008419D01*
X002798Y008662D02*
X002921Y008662D01*
X003045Y008785D01*
X003045Y009155D01*
X003168Y009398D02*
X003292Y009398D01*
X003415Y009522D01*
X003415Y009892D01*
X002674Y009892D01*
X002674Y009522D01*
X002798Y009398D01*
X002921Y009398D01*
X003045Y009522D01*
X003045Y009892D01*
X003292Y010135D02*
X002674Y010135D01*
X003045Y009522D02*
X003168Y009398D01*
X003415Y009155D02*
X003415Y008785D01*
X003292Y008662D01*
X003168Y008662D01*
X003045Y008785D01*
X002798Y008662D02*
X002674Y008785D01*
X002674Y009155D01*
X003415Y009155D01*
X003874Y009155D02*
X003998Y009155D01*
X004245Y008908D01*
X004615Y008908D01*
X004245Y008908D02*
X003998Y008662D01*
X003874Y008662D01*
X003998Y009398D02*
X003874Y009522D01*
X003874Y009769D01*
X003998Y009892D01*
X004492Y009892D01*
X004615Y009769D01*
X004615Y009522D01*
X004492Y009398D01*
X004245Y009398D01*
X004245Y009645D01*
X004492Y010135D02*
X003998Y010135D01*
X003874Y010258D01*
X003874Y010505D01*
X003998Y010629D01*
X004492Y010629D01*
X004615Y010505D01*
X004615Y010258D01*
X004492Y010135D01*
X004615Y010871D02*
X004615Y011365D01*
X003874Y011365D01*
X003998Y011608D02*
X003874Y011732D01*
X003874Y011978D01*
X003998Y012102D01*
X004492Y012102D01*
X004615Y011978D01*
X004615Y011732D01*
X004492Y011608D01*
X003998Y011608D01*
X003415Y011365D02*
X003415Y010995D01*
X003292Y010871D01*
X003168Y010871D01*
X003045Y010995D01*
X003045Y011365D01*
X003415Y011365D02*
X002674Y011365D01*
X002674Y010995D01*
X002798Y010871D01*
X002921Y010871D01*
X003045Y010995D01*
X003292Y010629D02*
X003415Y010505D01*
X003415Y010258D01*
X003292Y010135D01*
X003292Y010629D02*
X002674Y010629D01*
X002674Y012345D02*
X002798Y012345D01*
X003045Y012592D01*
X003415Y012592D01*
X003045Y012592D02*
X002798Y012838D01*
X002674Y012838D01*
X002798Y013081D02*
X003045Y013081D01*
X003168Y013205D01*
X003168Y013575D01*
X003415Y013575D02*
X002674Y013575D01*
X002674Y013205D01*
X002798Y013081D01*
X002798Y013818D02*
X003045Y013818D01*
X003168Y013941D01*
X003168Y014312D01*
X003415Y014312D02*
X002674Y014312D01*
X002674Y013941D01*
X002798Y013818D01*
X002921Y014555D02*
X003415Y014555D01*
X003045Y014555D02*
X003045Y015048D01*
X002921Y015048D02*
X002674Y014801D01*
X002921Y014555D01*
X002921Y015048D02*
X003415Y015048D01*
X003415Y015291D02*
X002674Y015291D01*
X003045Y015291D02*
X003045Y015785D01*
X003415Y015785D02*
X002674Y015785D01*
X003874Y015785D02*
X003874Y015291D01*
X003874Y015048D02*
X004615Y015048D01*
X004615Y014555D01*
X004492Y014312D02*
X004615Y014188D01*
X004615Y013941D01*
X004492Y013818D01*
X004615Y013575D02*
X003874Y013575D01*
X003998Y013818D02*
X003874Y013941D01*
X003874Y014188D01*
X003998Y014312D01*
X004492Y014312D01*
X004245Y014801D02*
X004245Y015048D01*
X003874Y015048D02*
X003874Y014555D01*
X003874Y015538D02*
X004615Y015538D01*
X004245Y013575D02*
X004245Y013081D01*
X004615Y013081D02*
X003874Y013081D01*
X003874Y012838D02*
X004615Y012345D01*
X003874Y012345D01*
X003874Y012838D02*
X004615Y012838D01*
X016524Y012935D02*
X017165Y012508D01*
X016524Y012508D01*
X016524Y012290D02*
X016524Y011863D01*
X016631Y011646D02*
X017058Y011646D01*
X017165Y011539D01*
X017165Y011326D01*
X017058Y011219D01*
X016631Y011219D02*
X016524Y011326D01*
X016524Y011539D01*
X016631Y011646D01*
X016845Y012077D02*
X016845Y012290D01*
X017165Y012290D02*
X016524Y012290D01*
X016524Y012935D02*
X017165Y012935D01*
X017574Y012290D02*
X018001Y012290D01*
X018215Y012077D01*
X018001Y011863D01*
X017574Y011863D01*
X017788Y011646D02*
X017574Y011432D01*
X018215Y011432D01*
X018215Y011219D02*
X018215Y011646D01*
X018624Y011432D02*
X019265Y011432D01*
X019265Y011219D02*
X019265Y011646D01*
X019158Y011863D02*
X019265Y011970D01*
X019265Y012184D01*
X019158Y012290D01*
X018731Y011863D01*
X019158Y011863D01*
X018838Y011646D02*
X018624Y011432D01*
X018731Y011863D02*
X018624Y011970D01*
X018624Y012184D01*
X018731Y012290D01*
X019158Y012290D01*
X019265Y012508D02*
X019265Y012935D01*
X018838Y012508D01*
X018731Y012508D01*
X018624Y012615D01*
X018624Y012828D01*
X018731Y012935D01*
X018945Y011001D02*
X018945Y010681D01*
X019051Y010574D01*
X019158Y010574D01*
X019265Y010681D01*
X019265Y010895D01*
X019158Y011001D01*
X018945Y011001D01*
X018731Y010788D01*
X018624Y010574D01*
D13*
X021245Y008235D02*
X021336Y008484D01*
X021421Y008736D01*
X021501Y008989D01*
X021573Y009244D01*
X021640Y009501D01*
X021700Y009760D01*
X021754Y010020D01*
X021802Y010281D01*
X021843Y010544D01*
X021878Y010807D01*
X021906Y011071D01*
X021928Y011336D01*
X021943Y011601D01*
X021952Y011866D01*
X021954Y012132D01*
X021950Y012397D01*
X021939Y012663D01*
X021922Y012928D01*
X021898Y013192D01*
X021868Y013456D01*
X021831Y013719D01*
X021788Y013981D01*
X021738Y014242D01*
X021682Y014501D01*
X021620Y014760D01*
X021551Y015016D01*
X021476Y015271D01*
X021395Y015524D01*
X021308Y015775D01*
X021215Y016023D01*
X021115Y016269D01*
X021010Y016513D01*
X020898Y016754D01*
X020781Y016992D01*
X020658Y017228D01*
X020529Y017460D01*
X020394Y017689D01*
X020254Y017914D01*
X020109Y018137D01*
X019958Y018355D01*
X019802Y018570D01*
X019640Y018781D01*
X019474Y018987D01*
X019302Y019190D01*
X019125Y019388D01*
X018944Y019582D01*
X018758Y019772D01*
X018567Y019957D01*
X018372Y020137D01*
X018173Y020312D01*
X017969Y020483D01*
X017761Y020648D01*
X017549Y020808D01*
X017334Y020963D01*
X017114Y021112D01*
X016891Y021257D01*
X016665Y021395D01*
X016435Y021528D01*
X016202Y021656D01*
X015966Y021777D01*
X015727Y021893D01*
X015485Y022003D01*
X015241Y022107D01*
X014994Y022205D01*
X014745Y022297D01*
X014493Y022383D01*
X014240Y022462D01*
X013985Y022535D01*
X013728Y022602D01*
X013469Y022663D01*
X013209Y022717D01*
X012948Y022765D01*
X012686Y022807D01*
X012423Y022842D01*
X012159Y022870D01*
X011894Y022893D01*
X011629Y022908D01*
X011364Y022917D01*
X011098Y022920D01*
X010833Y022916D01*
X010567Y022906D01*
X010302Y022889D01*
X010038Y022865D01*
X009774Y022835D01*
X009511Y022799D01*
X009249Y022756D01*
X008988Y022707D01*
X008728Y022652D01*
X008470Y022590D01*
X008213Y022521D01*
X007958Y022447D01*
X007705Y022366D01*
X007454Y022279D01*
X007206Y022186D01*
X006959Y022087D01*
X006715Y021982D01*
X006474Y021871D01*
X006236Y021754D01*
X006000Y021631D01*
X005768Y021503D01*
X005539Y021369D01*
X005313Y021229D01*
X005091Y021084D01*
X004872Y020933D01*
X004657Y020777D01*
X004446Y020616D01*
X004239Y020450D01*
X004036Y020278D01*
X003837Y020102D01*
X003643Y019921D01*
X003453Y019735D01*
X003268Y019545D01*
X003088Y019350D01*
X002912Y019151D01*
X002741Y018947D01*
X002576Y018740D01*
X002415Y018528D01*
X002260Y018313D01*
X002110Y018093D01*
X001966Y017871D01*
X001827Y017644D01*
X001693Y017415D01*
X001566Y017182D01*
X001444Y016946D01*
X001328Y016707D01*
X001217Y016466D01*
X001113Y016221D01*
X001015Y015975D01*
D14*
X005135Y013904D02*
X005595Y013904D01*
X005595Y014057D02*
X005595Y014134D01*
X005518Y014134D01*
X005518Y014057D01*
X005595Y014057D01*
X005518Y014287D02*
X005288Y014287D01*
X005518Y014287D02*
X005595Y014364D01*
X005518Y014441D01*
X005595Y014517D01*
X005518Y014594D01*
X005288Y014594D01*
X005288Y014748D02*
X005518Y014748D01*
X005595Y014824D01*
X005518Y014901D01*
X005595Y014978D01*
X005518Y015055D01*
X005288Y015055D01*
X005288Y015208D02*
X005518Y015208D01*
X005595Y015285D01*
X005518Y015362D01*
X005595Y015438D01*
X005518Y015515D01*
X005288Y015515D01*
X005365Y013904D02*
X005288Y013827D01*
X005288Y013673D01*
X005365Y013597D01*
X005595Y013597D01*
X005518Y013443D02*
X005442Y013367D01*
X005442Y013136D01*
X005365Y013136D02*
X005595Y013136D01*
X005595Y013367D01*
X005518Y013443D01*
X005288Y013367D02*
X005288Y013213D01*
X005365Y013136D01*
X005288Y012983D02*
X005288Y012753D01*
X005365Y012676D01*
X005518Y012676D01*
X005595Y012753D01*
X005595Y012983D01*
X005748Y012983D02*
X005288Y012983D01*
X005288Y012522D02*
X005288Y012292D01*
X005365Y012216D01*
X005518Y012216D01*
X005595Y012292D01*
X005595Y012522D01*
X005748Y012522D02*
X005288Y012522D01*
X005288Y012062D02*
X005518Y012062D01*
X005595Y011985D01*
X005595Y011755D01*
X005672Y011755D02*
X005748Y011832D01*
X005748Y011909D01*
X005672Y011755D02*
X005288Y011755D01*
X005288Y011602D02*
X005288Y011371D01*
X005365Y011295D01*
X005518Y011295D01*
X005595Y011371D01*
X005595Y011602D01*
X005135Y011602D01*
X005288Y011141D02*
X005518Y011141D01*
X005595Y011065D01*
X005595Y010834D01*
X005288Y010834D01*
X005288Y010681D02*
X005288Y010451D01*
X005365Y010374D01*
X005518Y010374D01*
X005595Y010451D01*
X005595Y010681D01*
X005135Y010681D01*
X005135Y010220D02*
X005595Y010220D01*
X005595Y009990D01*
X005518Y009914D01*
X005365Y009914D01*
X005288Y009990D01*
X005288Y010220D01*
X005135Y009760D02*
X005135Y009683D01*
X005595Y009683D01*
X005595Y009607D02*
X005595Y009760D01*
X005518Y009453D02*
X005365Y009453D01*
X005288Y009376D01*
X005288Y009223D01*
X005365Y009146D01*
X005442Y009146D01*
X005442Y009453D01*
X005518Y009453D02*
X005595Y009376D01*
X005595Y009223D01*
X005595Y008993D02*
X005595Y008763D01*
X005518Y008686D01*
X005442Y008763D01*
X005442Y008916D01*
X005365Y008993D01*
X005288Y008916D01*
X005288Y008686D01*
X005518Y008532D02*
X005518Y008456D01*
X005595Y008456D01*
X005595Y008532D01*
X005518Y008532D01*
X005518Y008225D02*
X005211Y008225D01*
X005288Y008302D02*
X005288Y008149D01*
X005365Y007995D02*
X005288Y007919D01*
X005288Y007765D01*
X005365Y007688D01*
X005442Y007688D01*
X005442Y007995D01*
X005518Y007995D02*
X005365Y007995D01*
X005518Y007995D02*
X005595Y007919D01*
X005595Y007765D01*
X005518Y007535D02*
X005595Y007458D01*
X005595Y007228D01*
X005595Y007074D02*
X005135Y007074D01*
X005288Y006998D02*
X005288Y006844D01*
X005365Y006768D01*
X005595Y006768D01*
X005365Y007074D02*
X005288Y006998D01*
X005288Y007228D02*
X005288Y007458D01*
X005365Y007535D01*
X005518Y007535D01*
X005595Y008149D02*
X005518Y008225D01*
D15*
X014295Y010511D03*
D16*
X014295Y007895D03*
X009895Y011395D03*
D17*
X014262Y010479D03*
D18*
X013928Y010212D03*
X014262Y007878D03*
X010062Y007678D03*
X009728Y011712D03*
D19*
X014228Y010445D03*
D20*
X014228Y007861D03*
D21*
X014195Y010411D03*
D22*
X014195Y007845D03*
D23*
X014162Y010395D03*
D24*
X014162Y007828D03*
X010062Y011262D03*
X009762Y011695D03*
D25*
X014128Y010378D03*
D26*
X014128Y007811D03*
D27*
X014095Y010329D03*
D28*
X014095Y007795D03*
D29*
X014062Y010311D03*
D30*
X014062Y007778D03*
D31*
X014028Y010295D03*
D32*
X014028Y007745D03*
D33*
X013995Y010262D03*
X009695Y011695D03*
D34*
X013995Y007728D03*
D35*
X013962Y010245D03*
D36*
X013962Y007711D03*
X009828Y011711D03*
D37*
X013928Y007678D03*
D38*
X013895Y008829D03*
X012395Y007929D03*
D39*
X012428Y007945D03*
X013862Y008778D03*
D40*
X013828Y008761D03*
X012462Y007961D03*
D41*
X013795Y008745D03*
D42*
X013762Y008728D03*
X012562Y008028D03*
X012528Y007995D03*
D43*
X013728Y008711D03*
D44*
X013695Y008695D03*
D45*
X013662Y008678D03*
X012662Y008078D03*
D46*
X012728Y008129D03*
X013628Y008661D03*
D47*
X013595Y008645D03*
D48*
X013562Y008628D03*
X012762Y008162D03*
D49*
X012828Y008211D03*
X013528Y008611D03*
D50*
X013495Y008595D03*
D51*
X013462Y008578D03*
X013428Y008578D03*
X012862Y008245D03*
D52*
X013395Y008561D03*
D53*
X013362Y008545D03*
D54*
X013328Y008528D03*
X012962Y008328D03*
D55*
X013295Y012495D03*
D56*
X013295Y008528D03*
D57*
X009862Y007628D03*
X009262Y011595D03*
X009962Y013295D03*
X013262Y012495D03*
D58*
X013262Y008529D03*
D59*
X013228Y012495D03*
D60*
X013228Y008512D03*
X013028Y008412D03*
D61*
X013195Y012512D03*
D62*
X013195Y008512D03*
D63*
X012728Y011329D03*
X013162Y011829D03*
X013162Y013161D03*
D64*
X013162Y008495D03*
D65*
X013128Y011695D03*
X013128Y013295D03*
D66*
X013128Y008511D03*
D67*
X013095Y013395D03*
D68*
X013095Y008695D03*
D69*
X013062Y013479D03*
D70*
X012828Y013929D03*
X012762Y014029D03*
X013062Y011561D03*
X008528Y011061D03*
X008462Y011161D03*
X008228Y009761D03*
X008528Y013961D03*
D71*
X013062Y008461D03*
D72*
X012828Y011361D03*
X013028Y013561D03*
X008362Y013661D03*
X008362Y011329D03*
X008462Y009829D03*
X008362Y009761D03*
X008328Y009761D03*
X008262Y009761D03*
D73*
X009228Y010345D03*
X009428Y010245D03*
X009828Y010045D03*
X009862Y010045D03*
X013028Y011545D03*
X012262Y014545D03*
X012128Y014645D03*
X011962Y014745D03*
X011762Y014845D03*
X011528Y014945D03*
X011162Y015045D03*
X010162Y015045D03*
X009828Y014945D03*
X009562Y014845D03*
X009362Y014745D03*
X009228Y014645D03*
X008962Y014445D03*
D74*
X008395Y013729D03*
X008395Y009761D03*
X008295Y009761D03*
X012995Y013629D03*
D75*
X012995Y011495D03*
D76*
X012995Y008379D03*
D77*
X009062Y011378D03*
X009028Y011378D03*
X008428Y011212D03*
X008428Y013778D03*
X008462Y013845D03*
X012862Y013878D03*
X012928Y013778D03*
X012962Y013712D03*
D78*
X012928Y011429D03*
X008928Y011029D03*
D79*
X012928Y008311D03*
D80*
X010095Y009761D03*
X008595Y010961D03*
X008195Y009761D03*
X012895Y013829D03*
D81*
X011895Y014779D03*
X011695Y014879D03*
X011595Y014911D03*
X011295Y015011D03*
X010395Y015079D03*
X009895Y014979D03*
X009695Y014911D03*
X009495Y014811D03*
X012895Y011411D03*
X009695Y010111D03*
X009295Y010311D03*
X009195Y010379D03*
D82*
X012895Y008278D03*
D83*
X012862Y011379D03*
X012162Y013579D03*
X012728Y014079D03*
X012562Y014279D03*
X009062Y011079D03*
X008662Y010879D03*
X008628Y010911D03*
X008628Y014079D03*
X008728Y014211D03*
D84*
X008695Y014179D03*
X008795Y014279D03*
X008795Y010711D03*
X012695Y014111D03*
X012795Y013979D03*
D85*
X012795Y011345D03*
D86*
X012795Y008179D03*
D87*
X012762Y011329D03*
X008228Y011661D03*
D88*
X012695Y011295D03*
D89*
X012695Y008112D03*
D90*
X008762Y010745D03*
X008662Y014145D03*
X008762Y014245D03*
X012662Y014145D03*
D91*
X012662Y011295D03*
D92*
X012628Y014195D03*
X012528Y014295D03*
X012462Y014362D03*
X012428Y014395D03*
X012362Y014462D03*
X012328Y014495D03*
X012228Y014562D03*
X009062Y014528D03*
X009028Y014495D03*
X008928Y014428D03*
X008862Y014362D03*
X008828Y014328D03*
X008862Y011395D03*
X009028Y011062D03*
X008728Y010795D03*
X008828Y010695D03*
X008862Y010662D03*
X008928Y010595D03*
X009028Y010495D03*
X009128Y010428D03*
X009162Y010395D03*
X009262Y010328D03*
D93*
X012628Y011295D03*
D94*
X012628Y008061D03*
D95*
X008895Y010628D03*
X008695Y010828D03*
X008895Y011395D03*
X008895Y014395D03*
X008995Y014462D03*
X009095Y014562D03*
X009195Y014628D03*
X009295Y014695D03*
X011995Y014728D03*
X012095Y014662D03*
X012195Y014595D03*
X012295Y014528D03*
X012395Y014428D03*
X012495Y014328D03*
X012595Y014228D03*
D96*
X012595Y011295D03*
D97*
X012595Y008045D03*
D98*
X012562Y011278D03*
X009162Y011412D03*
D99*
X012528Y011279D03*
D100*
X012495Y011279D03*
D101*
X012495Y007979D03*
D102*
X012462Y011278D03*
D103*
X012428Y011279D03*
X012062Y013511D03*
D104*
X012395Y011279D03*
D105*
X012362Y011278D03*
X009328Y011678D03*
D106*
X012328Y007895D03*
X012362Y007895D03*
D107*
X012328Y011295D03*
X010028Y013395D03*
X009362Y011695D03*
D108*
X012295Y011311D03*
D109*
X012295Y007879D03*
D110*
X012262Y011329D03*
D111*
X012262Y007862D03*
D112*
X009928Y007645D03*
X012228Y011345D03*
D113*
X012228Y007845D03*
D114*
X012195Y011361D03*
D115*
X012195Y007845D03*
D116*
X009962Y010011D03*
X009762Y010079D03*
X009662Y010111D03*
X009528Y010179D03*
X009462Y010211D03*
X009362Y010279D03*
X009328Y010279D03*
X009062Y010479D03*
X008928Y010379D03*
X008862Y010311D03*
X008828Y010279D03*
X008762Y010211D03*
X008728Y010179D03*
X008662Y010111D03*
X008628Y010079D03*
X008562Y010011D03*
X008528Y009979D03*
X008828Y011411D03*
X009128Y014579D03*
X009162Y014611D03*
X009262Y014679D03*
X009328Y014711D03*
X009428Y014779D03*
X009462Y014779D03*
X009528Y014811D03*
X009628Y014879D03*
X009662Y014879D03*
X009728Y014911D03*
X009928Y014979D03*
X010028Y015011D03*
X010928Y015079D03*
X011328Y015011D03*
X011428Y014979D03*
X011628Y014911D03*
X011728Y014879D03*
X011828Y014811D03*
X011862Y014811D03*
X011928Y014779D03*
X012028Y014711D03*
X012062Y014679D03*
X012162Y014611D03*
D117*
X012162Y011379D03*
D118*
X012162Y007829D03*
D119*
X009128Y011262D03*
X012128Y013595D03*
D120*
X012128Y011429D03*
D121*
X012128Y007812D03*
D122*
X012095Y013579D03*
D123*
X012095Y011478D03*
D124*
X012095Y007812D03*
D125*
X012062Y011579D03*
D126*
X012062Y007795D03*
D127*
X010362Y007979D03*
X012028Y012279D03*
D128*
X012028Y007779D03*
D129*
X011995Y012279D03*
D130*
X011995Y007779D03*
D131*
X010528Y007895D03*
X011962Y012295D03*
D132*
X011962Y007762D03*
X011928Y007762D03*
D133*
X010562Y007879D03*
X011928Y012311D03*
D134*
X011895Y012311D03*
X010695Y007811D03*
D135*
X011895Y007745D03*
D136*
X011862Y012329D03*
D137*
X011862Y007745D03*
D138*
X011828Y012329D03*
D139*
X011062Y012361D03*
X011028Y012361D03*
X010962Y012361D03*
X010928Y012361D03*
X011828Y007729D03*
D140*
X009595Y010145D03*
X009395Y010245D03*
X009095Y010445D03*
X008895Y010345D03*
X008795Y010245D03*
X008695Y010145D03*
X008595Y010045D03*
X008495Y009945D03*
X008995Y011045D03*
X009395Y014745D03*
X009595Y014845D03*
X009795Y014945D03*
X010195Y015045D03*
X011795Y014845D03*
D141*
X011795Y012345D03*
D142*
X010995Y012361D03*
X011795Y007729D03*
D143*
X010962Y007745D03*
X011762Y012345D03*
D144*
X011162Y012378D03*
X011128Y012378D03*
X010862Y012345D03*
X010828Y012345D03*
X010762Y012345D03*
X011762Y007712D03*
D145*
X011062Y007729D03*
X011028Y007729D03*
X010162Y012161D03*
X011728Y012361D03*
D146*
X011228Y012361D03*
X010728Y012329D03*
X010662Y012329D03*
X011728Y007729D03*
D147*
X011695Y012361D03*
D148*
X011295Y012379D03*
X010595Y012311D03*
X011695Y007711D03*
D149*
X009728Y010095D03*
X011662Y014895D03*
X011362Y014995D03*
X010862Y015095D03*
X010828Y015095D03*
X010762Y015095D03*
X010728Y015095D03*
X010662Y015095D03*
X010628Y015095D03*
X010562Y015095D03*
X010528Y015095D03*
X010462Y015095D03*
X010428Y015095D03*
X009962Y014995D03*
D150*
X011662Y012361D03*
X011128Y007729D03*
D151*
X011628Y007711D03*
X011662Y007711D03*
X011328Y012379D03*
X011262Y012379D03*
X010628Y012311D03*
X010562Y012311D03*
D152*
X011628Y012362D03*
X011262Y007695D03*
X011228Y007695D03*
D153*
X011295Y007711D03*
X010295Y012211D03*
X011595Y012379D03*
D154*
X010495Y012295D03*
X011595Y007695D03*
D155*
X010062Y009861D03*
X009928Y010029D03*
X009628Y010129D03*
X009562Y010161D03*
X008962Y011029D03*
X008162Y009761D03*
X009762Y014929D03*
X009862Y014961D03*
X010062Y015029D03*
X010128Y015029D03*
X010228Y015061D03*
X010262Y015061D03*
X010328Y015061D03*
X010362Y015061D03*
X010962Y015061D03*
X011028Y015061D03*
X011062Y015061D03*
X011128Y015061D03*
X011228Y015029D03*
X011262Y015029D03*
X011462Y014961D03*
X011562Y014929D03*
D156*
X011562Y012379D03*
D157*
X011362Y012362D03*
X010528Y012295D03*
X011562Y007695D03*
D158*
X011528Y012378D03*
X010362Y012245D03*
D159*
X010462Y012279D03*
X011428Y012379D03*
X011528Y007711D03*
D160*
X009895Y010029D03*
X009795Y010061D03*
X008795Y011429D03*
X011495Y014961D03*
X011195Y015029D03*
X011095Y015061D03*
X010995Y015061D03*
X010295Y015061D03*
X010095Y015029D03*
D161*
X011495Y012378D03*
D162*
X011495Y007695D03*
D163*
X011462Y012361D03*
X010428Y012261D03*
D164*
X011428Y007695D03*
X011462Y007695D03*
D165*
X009495Y010195D03*
X009995Y014995D03*
X010495Y015095D03*
X010595Y015095D03*
X010695Y015095D03*
X010795Y015095D03*
X010895Y015095D03*
X011395Y014995D03*
D166*
X011395Y012379D03*
D167*
X011395Y007695D03*
D168*
X011362Y007695D03*
X011328Y007695D03*
D169*
X011195Y012361D03*
X010695Y012329D03*
D170*
X011195Y007711D03*
D171*
X011162Y007711D03*
X010262Y012211D03*
D172*
X010795Y012345D03*
X010895Y012345D03*
X011095Y012378D03*
D173*
X010195Y012178D03*
X011095Y007712D03*
D174*
X010995Y007745D03*
D175*
X010928Y007762D03*
D176*
X010895Y007762D03*
D177*
X010862Y007779D03*
X010828Y007779D03*
D178*
X010795Y007795D03*
D179*
X010762Y007812D03*
D180*
X010728Y007811D03*
D181*
X010662Y007845D03*
D182*
X010628Y007862D03*
D183*
X010595Y007879D03*
D184*
X010495Y007912D03*
D185*
X010462Y007929D03*
D186*
X010428Y007945D03*
D187*
X010395Y012261D03*
D188*
X010395Y007962D03*
D189*
X010328Y012229D03*
D190*
X010328Y007995D03*
D191*
X010295Y008029D03*
D192*
X010262Y008045D03*
D193*
X010228Y012195D03*
D194*
X010228Y008079D03*
D195*
X010195Y008111D03*
D196*
X010162Y008129D03*
D197*
X009428Y011695D03*
X010128Y013462D03*
D198*
X010128Y011261D03*
D199*
X010128Y008161D03*
D200*
X009395Y011678D03*
X010095Y013445D03*
D201*
X010095Y011262D03*
D202*
X010095Y007745D03*
D203*
X010062Y013429D03*
D204*
X010028Y011245D03*
D205*
X010028Y007661D03*
D206*
X009995Y013345D03*
D207*
X009995Y011229D03*
D208*
X009995Y007645D03*
D209*
X009962Y011295D03*
D210*
X009528Y011695D03*
X009962Y007628D03*
D211*
X008062Y012511D03*
X009928Y013211D03*
D212*
X009928Y011329D03*
D213*
X009895Y012945D03*
D214*
X009895Y007629D03*
D215*
X009862Y011728D03*
D216*
X009828Y007629D03*
D217*
X009795Y011695D03*
D218*
X008195Y011778D03*
X009795Y007645D03*
D219*
X009662Y011695D03*
D220*
X009628Y011679D03*
D221*
X009595Y011695D03*
D222*
X009562Y011695D03*
D223*
X009495Y011695D03*
D224*
X009462Y011695D03*
D225*
X009295Y011629D03*
D226*
X009228Y011561D03*
D227*
X009195Y011495D03*
D228*
X009095Y011245D03*
D229*
X008995Y011378D03*
X008395Y011278D03*
D230*
X008495Y011095D03*
X008995Y010495D03*
X008495Y013895D03*
D231*
X008562Y013995D03*
X008928Y011395D03*
X008962Y011395D03*
X008562Y010995D03*
D232*
X008328Y011395D03*
X008962Y010495D03*
X008428Y009795D03*
X008328Y013595D03*
D233*
X008595Y014045D03*
D234*
X008495Y009761D03*
D235*
X008295Y011479D03*
X008295Y013511D03*
D236*
X008262Y013428D03*
X008262Y011562D03*
D237*
X008228Y013345D03*
D238*
X008195Y013229D03*
D239*
X008162Y013079D03*
D240*
X008162Y011945D03*
D241*
X008128Y012511D03*
D242*
X008095Y012495D03*
D243*
X008028Y012511D03*
M02*
