%
M48
M72
T01C0.0315
T02C0.0400
T03C0.1206
T04C0.1260
%
T01
X6575Y4925
X6575Y5925
X6575Y6925
X6575Y7925
X6575Y8925
X6575Y9925
X6575Y10925
X6575Y11925
X6575Y12925
X6575Y13925
X6575Y14925
X6575Y15925
X6575Y16925
X6575Y17925
X6575Y18925
X15575Y7925
X15575Y6925
X15575Y5925
X15575Y4925
X15575Y8925
X15575Y9925
X15575Y10925
X15575Y11925
X15575Y12925
X15575Y13925
X15575Y14925
X15575Y15925
X15575Y16925
X15575Y17925
X15575Y18925
T02
X1125Y10775
X1125Y11775
X1125Y12775
X19875Y8605
X19975Y9605
X19875Y10605
X19975Y11605
X19875Y12605
X19975Y13605
X19875Y14605
X19975Y15605
T03
X4655Y19255
X17655Y19255
T04
X15075Y20425
X7075Y20425
X15075Y3425
X7075Y3425
M30
